<?xml version="1.0" encoding="UTF-8" standalone="no"?>
<svg
   xmlns:dc="http://purl.org/dc/elements/1.1/"
   xmlns:cc="http://creativecommons.org/ns#"
   xmlns:rdf="http://www.w3.org/1999/02/22-rdf-syntax-ns#"
   xmlns:svg="http://www.w3.org/2000/svg"
   xmlns="http://www.w3.org/2000/svg"
   xmlns:sodipodi="http://sodipodi.sourceforge.net/DTD/sodipodi-0.dtd"
   xmlns:inkscape="http://www.inkscape.org/namespaces/inkscape"
   width="37.919025mm"
   height="37.919659mm"
   viewBox="0 0 37.919025 37.919658"
   version="1.1"
   id="svg1208"
   inkscape:version="1.0.1 (3bc2e813f5, 2020-09-07)"
   sodipodi:docname="3.svg">
  <defs
     id="defs1202">
    <clipPath
       clipPathUnits="userSpaceOnUse"
       id="clipPath680">
      <path
         d="m 589.734,407.694 c 0,-29.682 24.061,-53.745 53.743,-53.745 v 0 c 29.682,0 53.745,24.063 53.745,53.745 v 0 c 0,29.682 -24.063,53.743 -53.745,53.743 v 0 c -29.682,0 -53.743,-24.061 -53.743,-53.743"
         id="path678" />
    </clipPath>
  </defs>
  <sodipodi:namedview
     id="base"
     pagecolor="#ffffff"
     bordercolor="#666666"
     borderopacity="1.0"
     inkscape:pageopacity="0.0"
     inkscape:pageshadow="2"
     inkscape:zoom="1.979899"
     inkscape:cx="-8.4556587"
     inkscape:cy="4.5329318"
     inkscape:document-units="mm"
     inkscape:current-layer="layer1"
     inkscape:document-rotation="0"
     showgrid="false"
     inkscape:window-width="1267"
     inkscape:window-height="1041"
     inkscape:window-x="1946"
     inkscape:window-y="0"
     inkscape:window-maximized="0" />
  <metadata
     id="metadata1205">
    <rdf:RDF>
      <cc:Work
         rdf:about="">
        <dc:format>image/svg+xml</dc:format>
        <dc:type
           rdf:resource="http://purl.org/dc/dcmitype/StillImage" />
        <dc:title></dc:title>
      </cc:Work>
    </rdf:RDF>
  </metadata>
  <g
     inkscape:label="Layer 1"
     inkscape:groupmode="layer"
     id="layer1"
     transform="translate(-164.13674,-179.63788)">
    <g
       id="g1395"
       transform="matrix(0.35277777,0,0,-0.35277777,-43.73975,342.42288)">
      <g
         id="g658"
         transform="translate(696.7432,407.6938)">
        <path
           d="m 0,0 c 0,-29.682 -24.062,-53.744 -53.744,-53.744 -29.682,0 -53.743,24.062 -53.743,53.744 0,29.682 24.061,53.744 53.743,53.744 C -24.062,53.744 0,29.682 0,0"
           style="fill:#f8f8e7;fill-opacity:1;fill-rule:nonzero;stroke:none"
           id="path660" />
      </g>
      <g
         id="g1309">
        <g
           id="g674">
          <g
             id="g676"
             clip-path="url(#clipPath680)">
            <g
               id="g682"
               transform="translate(619.3838,366.917)">
              <path
                 d="m 0,0 c 0.001,-2.531 0.003,-5.069 -0.385,-7.576 -0.185,-1.2 -1.396,-3.655 -0.293,-4.647 0.766,-0.687 3.572,-1.006 4.674,-1.369 1.963,-0.646 3.83,-1.294 5.905,-1.687 2.587,-0.489 5.498,-0.824 8.142,-1.012 0.546,1.412 0.324,3.123 0.427,4.599 0.139,2.021 0.775,3.737 1.356,5.681 0.37,1.24 0.884,2.829 0.503,4.072 C 13.773,-1.644 7.567,-1.734 0,0"
                 style="fill:#e4a295;fill-opacity:1;fill-rule:nonzero;stroke:none"
                 id="path684" />
            </g>
            <g
               id="g686"
               transform="translate(628.8105,407.792)">
              <path
                 d="m 0,0 c -0.149,5.724 0.857,11.535 0.912,17.266 1.323,0.385 3.749,-2.114 4.563,-3.047 1.03,-1.182 2.244,-2.798 2.9,-4.221 0.368,-0.799 0.354,-1.685 0.491,-2.587 0.779,-5.105 3.409,-9.657 5.219,-14.41 3.013,-7.913 5.328,-16.029 3.873,-24.576 -0.394,-2.311 -1.077,-4.385 -1.696,-6.599 -0.77,-2.753 -9.587,-7.311 -12.426,-7.487 -4.626,-0.287 -3.475,2.367 -7.713,3.889 -6.645,2.388 -1.615,10.604 -0.372,15.109 1.129,4.09 1.71,8.165 3.296,12.112 0.826,2.055 1.279,4.143 1.56,6.346"
                 style="fill:#e09b89;fill-opacity:1;fill-rule:nonzero;stroke:none"
                 id="path688" />
            </g>
            <g
               id="g690"
               transform="translate(619.6406,362.6099)">
              <path
                 d="m 0,0 c -2.789,4.082 -0.884,17.997 0.153,25.979 0.33,2.537 -0.137,4.727 -0.171,7.146 -0.098,7.007 -0.073,13.942 1.031,20.849 0.194,1.219 0.733,3.057 1.667,4.407 0.914,1.323 2.977,0.881 3.309,-0.693 0.18,-0.855 0.37,-1.714 0.503,-2.583 0.447,-2.906 0.147,-5.84 0.556,-8.751 0.53,-3.78 3.093,-6.866 4.95,-10.13 1.14,-2.002 2.756,-3.847 3.423,-6.084 0.759,-2.543 0.738,-5.361 0.927,-7.974 0.21,-2.915 -0.558,-5.569 -0.702,-8.289 C 15.398,9.23 13.492,4.058 11.597,-0.261 6.418,-0.54 3.91,-10.217 0,0"
                 style="fill:#e4a295;fill-opacity:1;fill-rule:nonzero;stroke:none"
                 id="path692" />
            </g>
            <g
               id="g694"
               transform="translate(663.7568,424.9614)">
              <path
                 d="M 0,0 C -0.086,1.515 1.02,3.313 1.793,4.539 2.208,5.197 2.566,5.98 3.216,6.629 5.357,7.682 5.468,5.171 5.47,3.646 5.475,0.577 4.942,-2.498 3.506,-5.209 2.55,-4.353 1.064,-1.738 0,0"
                 style="fill:#e09b89;fill-opacity:1;fill-rule:nonzero;stroke:none"
                 id="path696" />
            </g>
            <g
               id="g698"
               transform="translate(668.1631,421.1626)">
              <path
                 d="m 0,0 c 1.409,-0.846 2.988,-1.312 3.192,-2.954 0.149,-1.186 -0.575,-2.368 -1.26,-3.279 1.547,-1.252 2.109,-1.932 1.866,-4.178 -0.11,-1.017 -0.29,-1.482 -0.143,-2.246 0.423,-2.195 2.528,-4.029 0.532,-6.244 -1.355,-1.505 -3.544,-1.545 -5.407,-1.646 2.328,-1.709 1.806,-5.048 -1.443,-4.996 -2.763,0.043 -4.638,0.904 -5.435,3.497 -1.224,3.984 1.749,5.376 3.575,8.543 -3.05,2.759 -4.773,5.57 -4.425,9.93 0.445,0.07 1.033,0.125 1.509,0.143 -1.773,1.059 -2.396,4.267 -0.207,5.613 C -5.679,3.392 -2.459,2.374 0,0"
                 style="fill:#5be9d9;fill-opacity:1;fill-rule:nonzero;stroke:none"
                 id="path700" />
            </g>
            <g
               id="g702"
               transform="translate(635.9521,409.9189)">
              <path
                 d="m 0,0 c -1.084,2.348 -3.071,-1.962 -3.226,-2.868 -2.237,0.017 -4.647,-1.352 -5.062,-3.568 -0.206,-1.098 -0.156,-2.445 0.217,-3.502 0.27,-0.767 0.921,-1.377 0.922,-2.194 -2.744,-0.593 -2.393,-2.382 -2.296,-4.512 0.032,-0.698 -0.035,-1.899 0.081,-2.899 1.578,-0.307 -1.304,-3.843 1.91,-3.415 0.056,-1.672 -0.136,-2.714 1.271,-3.894 2.324,-1.946 4.742,-2.297 7.657,-2.323 0.239,-2.311 0.135,-4.46 3.072,-5.011 3.454,-0.647 8.002,2.575 8.221,6.035 0.353,5.616 -1.1,12.422 -3.525,17.53 -1.695,3.573 -4.878,6.021 -7.419,8.95"
                 style="fill:#5be9d9;fill-opacity:1;fill-rule:nonzero;stroke:none"
                 id="path704" />
            </g>
            <g
               id="g706"
               transform="translate(639.1465,403.4082)">
              <path
                 d="m 0,0 c -0.085,1.037 -1.431,-0.317 -1.614,-0.637 -0.843,0.315 -1.943,0.132 -2.407,-0.648 -0.229,-0.386 -0.396,-0.903 -0.401,-1.353 -0.004,-0.327 0.157,-0.648 0.045,-0.956 -1.118,0.155 -1.233,-0.569 -1.491,-1.387 -0.085,-0.268 -0.276,-0.712 -0.37,-1.106 0.553,-0.334 -1.025,-1.271 0.249,-1.554 -0.21,-0.64 -0.427,-1.006 -0.058,-1.647 0.609,-1.056 1.473,-1.523 2.57,-1.936 -0.228,-0.906 -0.565,-1.703 0.468,-2.317 1.216,-0.722 3.379,-0.134 3.94,1.143 0.91,2.072 1.301,4.844 1.092,7.108 -0.147,1.584 -1.01,2.949 -1.565,4.407"
                 style="fill:#c1f9f3;fill-opacity:1;fill-rule:nonzero;stroke:none"
                 id="path708" />
            </g>
            <g
               id="g710"
               transform="translate(668.5732,391.1938)">
              <path
                 d="m 0,0 c -0.38,8.526 -0.29,17.083 -0.291,25.634 -0.001,4.951 -1.88,7.98 -4.343,12.355 -2.029,3.607 -5.196,11.075 -9,9.149 0,-7.909 6.387,-12.307 5.492,-21.731 -1.914,5.707 -3.585,11.359 -6.191,16.982 -2.893,6.238 -9.932,17.056 -13.845,15.194 -2.62,-3.607 4.466,-10.69 6.522,-15.611 1.131,-2.708 3.03,-6.77 3.821,-9.828 0.811,-3.135 0.266,-4.315 0.669,-7.562 -0.076,3.037 -2.52,8.491 -3.86,11.346 -0.881,1.874 -2.324,4.913 -3.389,6.694 -2.838,4.746 -5.908,7.517 -10.215,11.287 -3.268,2.862 -4.621,-1.086 -2.885,-4.979 3.374,-7.566 5.637,-7.173 8.383,-12.112 1.192,-2.142 4.027,-11.772 4.119,-14.03 -1.497,5.296 -6.43,10.674 -10.008,14.797 -1.875,2.161 -6.558,7.383 -7.183,1.708 -0.517,-4.702 4.727,-8.794 6.959,-12.454 1.644,-2.698 2.768,-5.89 3.17,-9.356 0.393,-3.395 2.119,-10.546 1.517,-13.648 -0.904,3.645 -7.381,15.498 -11.582,13.008 -1.942,-2.631 -1.218,-4.868 0.33,-7.527 1.987,-3.41 4.318,-7.552 5.936,-11.5 3.905,-9.527 10.449,-28.221 13.415,-38.206 3.271,-0.147 6.287,-2.713 9.572,-2.713 2.194,0 9.199,2.836 11.128,4.148 1.507,1.025 -1.225,17.392 -0.657,19.464 C -0.432,-12.264 -0.514,-9.887 0,0"
                 style="fill:#f0b39e;fill-opacity:1;fill-rule:nonzero;stroke:none"
                 id="path712" />
            </g>
            <g
               id="g714"
               transform="translate(633.3682,428.9912)">
              <path
                 d="m 0,0 c 0.67,1.107 1.603,1.507 2.482,2.417 1.174,1.214 2.152,2.662 3.222,3.971 0.87,1.065 1.754,2.099 2.657,3.105 0.18,0.199 0.374,0.405 0.581,0.608 1.594,1.558 4.308,0.242 3.991,-1.963 C 12.701,6.538 12.234,4.959 11.554,3.417 10.497,1.024 9.107,-0.645 7.594,-2.74 6.755,-3.901 5.865,-5.316 5.103,-6.034 4.118,-4.985 0.445,-0.583 0,0"
                 style="fill:#e09b89;fill-opacity:1;fill-rule:nonzero;stroke:none"
                 id="path716" />
            </g>
            <g
               id="g718"
               transform="translate(645.6953,430.958)">
              <path
                 d="m 0,0 c 1.331,2.368 2.413,5.68 4.047,8.799 0.91,1.738 2.152,4.863 4.149,5.682 3.003,1.232 2.564,-2.264 2.081,-4.139 C 9.342,6.707 8.384,3.164 6.834,-0.261 5.385,-3.464 5.112,-4.648 3.417,-7.341 3.417,-7.341 0.792,-1.739 0,0"
                 style="fill:#e09b89;fill-opacity:1;fill-rule:nonzero;stroke:none"
                 id="path720" />
            </g>
            <g
               id="g722"
               transform="translate(656.3115,428.7598)">
              <path
                 d="M 0,0 C 0.267,1.988 2.582,7.473 4.91,9.192 7.282,10.945 8.279,9.64 8.002,7.669 7.44,3.675 6.579,2.387 5.28,-0.608 4.821,-1.666 2.613,-6.184 2.415,-6.988 1.966,-6.082 0,0 0,0"
                 style="fill:#e09b89;fill-opacity:1;fill-rule:nonzero;stroke:none"
                 id="path724" />
            </g>
            <g
               id="g726"
               transform="translate(642.6367,424.8091)">
              <path
                 d="m 0,0 c -1.079,0.989 -4.354,2.205 -3.396,-0.588 -1.491,0.216 -4.164,-2.54 -2.4,-3.232 0.043,-1.309 -0.036,-2.663 1.792,-2.429 -0.018,-1.911 -0.252,-3.712 2.47,-3.791 -0.219,-1.77 2.346,-3.315 3.334,-1.62 0.255,0.436 -0.054,1.216 0.158,1.654 0.447,0.928 1.139,1.046 1.388,2.136 0.383,1.678 -0.644,2.504 -0.914,3.831 C 2.052,-2.173 2.654,-1.999 0,0"
                 style="fill:#5be9d9;fill-opacity:1;fill-rule:nonzero;stroke:none"
                 id="path728" />
            </g>
            <g
               id="g730"
               transform="translate(641.4219,421.6187)">
              <path
                 d="m 0,0 c -2.449,1.748 -3.513,-2.134 -0.594,-2.153 -0.362,-0.385 -0.721,-1.304 -0.487,-1.833 0.347,-0.785 3.066,-1.052 3.639,-0.531 0.646,0.589 0.65,2.618 -0.526,2.41 C 1.923,-1.426 2.267,-0.26 1.604,0.222 1.089,0.595 -0.559,0.363 -0.76,0"
                 style="fill:#97f2e7;fill-opacity:1;fill-rule:nonzero;stroke:none"
                 id="path732" />
            </g>
            <g
               id="g734"
               transform="translate(651.6162,418.5796)">
              <path
                 d="m 0,0 c 0.748,-0.269 0.786,-1.852 0.882,-2.492 0.28,-1.869 0.434,-3.208 -1.186,-4.371 -1.041,0.805 -0.84,2.735 -0.982,3.83 C -1.401,-2.141 -1.78,-0.496 0,0"
                 style="fill:#c1f9f3;fill-opacity:1;fill-rule:nonzero;stroke:none"
                 id="path736" />
            </g>
            <g
               id="g738"
               transform="translate(646.3262,415.2837)">
              <path
                 d="m 0,0 c 0,-0.528 -0.428,-0.956 -0.956,-0.956 -0.527,0 -0.956,0.428 -0.956,0.956 0,0.528 0.429,0.956 0.956,0.956 C -0.428,0.956 0,0.528 0,0"
                 style="fill:#c1f9f3;fill-opacity:1;fill-rule:nonzero;stroke:none"
                 id="path740" />
            </g>
            <g
               id="g742"
               transform="translate(654.792,432.1025)">
              <path
                 d="m 0,0 c 1.557,0.047 2.02,0.056 2.589,-1.214 0.205,-0.456 0.062,-0.982 0.292,-1.402 0.244,-0.45 0.952,-0.623 1.19,-1.179 0.318,-0.742 0.081,-1.921 0.113,-2.609 0.043,-0.937 0.769,-3.183 -0.348,-3.832 -1.519,-0.882 -2.259,3.038 -3.11,4.052 -0.501,0.596 -0.732,0.336 -1.037,1.16 -0.236,0.636 0.015,1.766 0.007,2.459 C -0.312,-1.791 -0.626,-0.631 0,0"
                 style="fill:#5be9d9;fill-opacity:1;fill-rule:nonzero;stroke:none"
                 id="path744" />
            </g>
            <g
               id="g746"
               transform="translate(665.124,408.3999)">
              <path
                 d="M 0,0 C 0.767,0.927 2.047,0.453 2.279,-0.713 2.992,0.096 3.313,-0.523 3.612,-1.254 3.799,-1.708 3.516,-2.285 3.647,-2.746 3.761,-3.141 4.142,-3.349 4.232,-3.686 4.468,-4.557 4.257,-5.211 4.221,-6.011 4.188,-6.734 4.697,-8.586 4.414,-9.59 4.172,-10.447 3.696,-11.156 2.709,-10.853 1.248,-10.404 1.96,-8.847 1.53,-8.031 1.177,-7.358 -2.606,-5.169 0.287,-4.192 0.182,-3.235 -2.626,-1.929 0,0"
                 style="fill:#c1f9f3;fill-opacity:1;fill-rule:nonzero;stroke:none"
                 id="path748" />
            </g>
            <g
               id="g750"
               transform="translate(628.9629,385.457)">
              <path
                 d="m 0,0 c -1.127,0.595 -1.391,-0.235 -1.823,-0.914 -0.126,-0.197 -0.312,-1.161 -0.344,-1.254 -0.078,-0.233 -0.487,-0.354 -0.571,-0.713 -0.297,-1.26 2.625,-5.303 3.97,-3.379 1.843,0.15 3.366,4.931 1.525,4.9 C 2.627,0.037 0.619,2.351 0,0"
                 style="fill:#c1f9f3;fill-opacity:1;fill-rule:nonzero;stroke:none"
                 id="path752" />
            </g>
            <g
               id="g754"
               transform="translate(624.3281,389.5972)">
              <path
                 d="m 0,0 c 0,-0.482 -0.391,-0.874 -0.873,-0.874 -0.482,0 -0.874,0.392 -0.874,0.874 0,0.482 0.392,0.874 0.874,0.874 C -0.391,0.874 0,0.482 0,0"
                 style="fill:#c1f9f3;fill-opacity:1;fill-rule:nonzero;stroke:none"
                 id="path756" />
            </g>
            <g
               id="g758"
               transform="translate(662.8877,411.1636)">
              <path
                 d="m 0,0 c 0,-0.305 -0.247,-0.553 -0.553,-0.553 -0.305,0 -0.553,0.248 -0.553,0.553 0,0.306 0.248,0.553 0.553,0.553 C -0.247,0.553 0,0.306 0,0"
                 style="fill:#c1f9f3;fill-opacity:1;fill-rule:nonzero;stroke:none"
                 id="path760" />
            </g>
            <g
               id="g762"
               transform="translate(662.0068,403.9175)">
              <path
                 d="m 0,0 c 0,-0.461 -0.374,-0.835 -0.836,-0.835 -0.462,0 -0.836,0.374 -0.836,0.835 0,0.461 0.374,0.836 0.836,0.836 C -0.374,0.836 0,0.461 0,0"
                 style="fill:#c1f9f3;fill-opacity:1;fill-rule:nonzero;stroke:none"
                 id="path764" />
            </g>
            <g
               id="g766"
               transform="translate(668.8184,435.6587)">
              <path
                 d="m 0,0 c 0,-0.553 -0.448,-1.002 -1.002,-1.002 -0.553,0 -1.002,0.449 -1.002,1.002 0,0.553 0.449,1.002 1.002,1.002 C -0.448,1.002 0,0.553 0,0"
                 style="fill:#c1f9f3;fill-opacity:1;fill-rule:nonzero;stroke:none"
                 id="path768" />
            </g>
            <g
               id="g770"
               transform="translate(623.6855,425.8525)">
              <path
                 d="m 0,0 c 0,-1.103 -0.894,-1.996 -1.995,-1.996 -1.103,0 -1.996,0.893 -1.996,1.996 0,1.102 0.893,1.996 1.996,1.996 C -0.894,1.996 0,1.102 0,0"
                 style="fill:#97f2e7;fill-opacity:1;fill-rule:nonzero;stroke:none"
                 id="path772" />
            </g>
            <g
               id="g774"
               transform="translate(626.4395,436.0713)">
              <path
                 d="m 0,0 c 0,-0.326 -0.265,-0.589 -0.59,-0.589 -0.325,0 -0.589,0.263 -0.589,0.589 0,0.326 0.264,0.589 0.589,0.589 C -0.265,0.589 0,0.326 0,0"
                 style="fill:#c1f9f3;fill-opacity:1;fill-rule:nonzero;stroke:none"
                 id="path776" />
            </g>
            <g
               id="g778"
               transform="translate(615.8857,401.3848)">
              <path
                 d="m 0,0 c 0,-0.993 -0.805,-1.797 -1.798,-1.797 -0.992,0 -1.798,0.804 -1.798,1.797 0,0.993 0.806,1.798 1.798,1.798 C -0.805,1.798 0,0.993 0,0"
                 style="fill:#97f2e7;fill-opacity:1;fill-rule:nonzero;stroke:none"
                 id="path780" />
            </g>
          </g>
        </g>
      </g>
      <g
         id="g790"
         transform="translate(645.3926,377.8447)">
        <path
           d="M 0,0 15.419,20.741"
           style="fill:#006663;fill-opacity:1;fill-rule:nonzero;stroke:#006663;stroke-width:1.244;stroke-linecap:butt;stroke-linejoin:miter;stroke-miterlimit:10;stroke-dasharray:none;stroke-opacity:1"
           id="path792" />
      </g>
      <g
         id="g794"
         transform="translate(658.3018,399.4756)">
        <path
           d="M 0,0 4.656,2.229 3.995,-2.942"
           style="fill:#006663;fill-opacity:1;fill-rule:nonzero;stroke:none"
           id="path796" />
      </g>
      <g
         id="g798"
         transform="translate(665.332,379.521)">
        <path
           d="M 0,0 -18.274,18.275"
           style="fill:#006663;fill-opacity:1;fill-rule:nonzero;stroke:#006663;stroke-width:1.244;stroke-linecap:butt;stroke-linejoin:miter;stroke-miterlimit:10;stroke-dasharray:none;stroke-opacity:1"
           id="path800" />
      </g>
      <g
         id="g802"
         transform="translate(645.8115,395.4424)">
        <path
           d="M 0,0 -1.527,4.932 3.492,3.524"
           style="fill:#006663;fill-opacity:1;fill-rule:nonzero;stroke:none"
           id="path804" />
      </g>
    </g>
  </g>
</svg>
