<?xml version="1.0" encoding="UTF-8" standalone="no"?>
<svg
   xmlns:dc="http://purl.org/dc/elements/1.1/"
   xmlns:cc="http://creativecommons.org/ns#"
   xmlns:rdf="http://www.w3.org/1999/02/22-rdf-syntax-ns#"
   xmlns:svg="http://www.w3.org/2000/svg"
   xmlns="http://www.w3.org/2000/svg"
   xmlns:sodipodi="http://sodipodi.sourceforge.net/DTD/sodipodi-0.dtd"
   xmlns:inkscape="http://www.inkscape.org/namespaces/inkscape"
   width="37.919029mm"
   height="37.91938mm"
   viewBox="0 0 37.919029 37.91938"
   version="1.1"
   id="svg3777"
   inkscape:version="1.0.1 (3bc2e813f5, 2020-09-07)"
   sodipodi:docname="soap.svg">
  <defs
     id="defs3771">
    <clipPath
       id="clipPath72"
       clipPathUnits="userSpaceOnUse">
      <path
         id="path70"
         d="m 4065.73,4076.94 c 0,-296.82 -240.61,-537.44 -537.44,-537.44 -296.81,0 -537.43,240.62 -537.43,537.44 0,296.82 240.62,537.44 537.43,537.44 296.83,0 537.44,-240.62 537.44,-537.44" />
    </clipPath>
  </defs>
  <sodipodi:namedview
     id="base"
     pagecolor="#ffffff"
     bordercolor="#666666"
     borderopacity="1.0"
     inkscape:pageopacity="0.0"
     inkscape:pageshadow="2"
     inkscape:zoom="3.959798"
     inkscape:cx="132.0376"
     inkscape:cy="83.741285"
     inkscape:document-units="mm"
     inkscape:current-layer="layer1"
     inkscape:document-rotation="0"
     showgrid="false"
     inkscape:window-width="1267"
     inkscape:window-height="1041"
     inkscape:window-x="208"
     inkscape:window-y="0"
     inkscape:window-maximized="0" />
  <metadata
     id="metadata3774">
    <rdf:RDF>
      <cc:Work
         rdf:about="">
        <dc:format>image/svg+xml</dc:format>
        <dc:type
           rdf:resource="http://purl.org/dc/dcmitype/StillImage" />
        <dc:title></dc:title>
      </cc:Work>
    </rdf:RDF>
  </metadata>
  <g
     inkscape:label="Layer 1"
     inkscape:groupmode="layer"
     id="layer1"
     transform="translate(-123.91549,-129.20698)">
    <g
       clip-path="url(#clipPath72)"
       id="g68"
       transform="matrix(0.03527778,0,0,-0.03527778,18.404585,291.99206)">
      <path
         id="path74"
         style="fill:#f5fade;fill-opacity:1;fill-rule:nonzero;stroke:none"
         d="m 4065.73,4076.94 c 0,-296.82 -240.61,-537.44 -537.44,-537.44 -296.81,0 -537.43,240.62 -537.43,537.44 0,296.82 240.62,537.44 537.43,537.44 296.83,0 537.44,-240.62 537.44,-537.44" />
      <path
         id="path76"
         style="fill:#e18e87;fill-opacity:1;fill-rule:nonzero;stroke:none"
         d="m 3719.59,3875.74 c 51.71,37.14 116.12,72.89 159.18,123.23 24.31,28.41 24.32,93.71 26.96,130.58 1.41,19.61 1.96,39.16 -13.98,51.96 -50.38,-27.78 -53.54,-86.19 -66.64,-135.26 -9.7,-36.35 -76.15,-69.38 -104.01,-91.84 -33.4,-26.93 -89.31,-44.57 -122.71,-71.48 20.14,-5.74 100.9,0.02 121.2,-7.19" />
      <path
         id="path78"
         style="fill:#e18e87;fill-opacity:1;fill-rule:nonzero;stroke:none"
         d="m 3630.29,3884.89 c 51.71,37.15 116.12,72.9 159.18,123.24 24.31,28.4 24.31,93.7 26.97,130.57 1.4,19.61 1.95,39.17 -13.99,51.96 -50.38,-27.77 -53.54,-86.18 -66.64,-135.25 -9.7,-36.35 -76.15,-69.38 -104,-91.85 -33.41,-26.92 -89.32,-44.56 -122.71,-71.47 20.13,-5.74 100.9,0.02 121.19,-7.2" />
      <path
         id="path80"
         style="fill:#e18e87;fill-opacity:1;fill-rule:nonzero;stroke:none"
         d="m 3527.36,3836.05 c 51.71,37.15 116.12,72.9 159.18,123.24 24.3,28.41 24.31,93.7 26.96,130.57 1.41,19.61 1.95,39.18 -13.98,51.97 -50.38,-27.77 -53.54,-86.19 -66.64,-135.26 -9.7,-36.35 -76.15,-69.38 -104.01,-91.84 -33.41,-26.93 -89.31,-44.57 -122.71,-71.48 20.14,-5.74 100.9,0.02 121.2,-7.2" />
      <path
         id="path82"
         style="fill:#f09f8d;fill-opacity:1;fill-rule:nonzero;stroke:none"
         d="m 3591.76,3901.02 c 35.82,-29.9 120.23,-8.96 161.7,-6.54 17.88,1.05 35.67,-0.76 50.53,6.19 28.4,13.28 58.55,51.89 79.74,73.65 21.76,22.33 44.39,45.6 67.05,66.05 7.77,7.02 20.49,20.43 30.72,24.79 29.35,12.47 26.2,-20.14 24.25,-41.12 -3.5,-37.91 -46.56,-78.39 -69.84,-106.32 -17.54,-21.05 -36.28,-39.9 -53.72,-61.08 -12.11,-14.73 -23.97,-36.11 -38.77,-48.1 -15.48,-12.54 -39.05,-11.14 -58.24,-15.05 -69.03,-14.08 -138.1,-23.65 -208.12,-33.3 -59.08,-8.15 -117.57,-15.72 -176.34,-24.35 -28.46,-4.17 -58.84,-10.35 -87.46,-11.59 -44.51,-1.94 -129.17,22.87 -115.08,74.21 8.94,32.54 11.64,40.99 33.52,83.63 38.32,74.66 102.24,91.52 130.83,103.32 40.01,16.5 111.17,-2.9 152.92,5.34 34.32,6.76 67.45,17 101.6,24.74 29.85,6.78 59.37,14.06 88.47,23.44 8.91,2.87 25.77,11.48 34.85,11.47 21.77,-0.03 25.6,-23.54 18.31,-39.82 -11.72,-26.21 -40.68,-45.2 -62.42,-62.28" />
      <path
         id="path84"
         style="fill:#f09f8d;fill-opacity:1;fill-rule:nonzero;stroke:none"
         d="m 3267.9,3921.76 c -43.41,-7.54 -91.05,-1.39 -134.93,-0.48 -23.57,0.5 -103.59,22.41 -124.21,10.77 -20.1,-11.34 -36.4,-79.84 -35.24,-100.19 1.27,-22.45 1.64,-62.01 12.37,-80.41 12.61,-21.63 72.68,-8.14 102.74,-10.39 52.66,-3.95 88.81,8.81 141.65,5.85 35.18,-1.97 29.77,12.8 35.47,49.22 3.82,24.47 3.75,69.55 21,89.36" />
      <path
         id="path86"
         style="fill:#3bbdb7;fill-opacity:1;fill-rule:nonzero;stroke:none"
         d="m 3498.45,3788.35 c 0,-17.54 -14.23,-31.77 -31.78,-31.77 -17.54,0 -31.77,14.23 -31.77,31.77 0,17.55 31.77,63.73 31.77,63.73 0,0 31.78,-46.18 31.78,-63.73" />
      <path
         id="path88"
         style="fill:#f79327;fill-opacity:1;fill-rule:nonzero;stroke:none"
         d="m 3580.84,4077.46 c 0,-26.98 -21.86,-48.83 -48.83,-48.83 -26.97,0 -48.83,21.85 -48.83,48.83 0,26.97 48.83,97.93 48.83,97.93 0,0 48.83,-70.96 48.83,-97.93" />
      <path
         id="path90"
         style="fill:#3bbdb7;fill-opacity:1;fill-rule:nonzero;stroke:none"
         d="m 3641.09,3741.89 c 0,-16.13 -13.07,-29.2 -29.21,-29.2 -16.13,0 -29.2,13.07 -29.2,29.2 0,16.14 29.2,58.58 29.2,58.58 0,0 29.21,-42.44 29.21,-58.58" />
      <path
         id="path92"
         style="fill:#1bb2aa;fill-opacity:1;fill-rule:nonzero;stroke:none"
         d="m 3393.31,4762.02 37.66,-452.89 c 0.8,-9.39 9.09,-16.61 19.04,-16.61 h 171.62 c 9.99,0 18.24,7.22 19.05,16.61 l 37.66,452.89 h -285.03" />
      <path
         id="path94"
         style="fill:#f0e7cf;fill-opacity:1;fill-rule:nonzero;stroke:none"
         d="m 3591.69,4680.72 h -191.62 l 11.67,-140.34 h 179.95 v 140.34" />
      <path
         id="path96"
         style="fill:#f79327;fill-opacity:1;fill-rule:nonzero;stroke:none"
         d="m 3591.69,4540.38 h -179.95 l 9.98,-120.09 h 169.97 v 120.09" />
      <path
         id="path98"
         style="fill:#c7ece5;fill-opacity:1;fill-rule:nonzero;stroke:none"
         d="m 3472.32,4194.97 h 125.281 v 97.5469 H 3472.32 Z" />
      <path
         id="path100"
         style="fill:#e4f6f0;fill-opacity:1;fill-rule:nonzero;stroke:none"
         d="m 3466.67,4194.97 h 137.09 v 24.3125 h -137.09 z" />
      <path
         id="path102"
         style="fill:#e4f6f0;fill-opacity:1;fill-rule:nonzero;stroke:none"
         d="m 3546.26,4194.97 h 57.5 v 24.3125 h -57.5 z" />
      <path
         id="path104"
         style="fill:#bfded5;fill-opacity:1;fill-rule:nonzero;stroke:none"
         d="m 3472.32,4194.97 h 5.9102 v 24.3125 h -5.9102 z" />
      <path
         id="path106"
         style="fill:#bfded5;fill-opacity:1;fill-rule:nonzero;stroke:none"
         d="m 3487.25,4194.97 h 5.8984 v 24.3125 h -5.8984 z" />
      <path
         id="path108"
         style="fill:#bfded5;fill-opacity:1;fill-rule:nonzero;stroke:none"
         d="m 3502.17,4194.97 h 5.8984 v 24.3125 h -5.8984 z" />
      <path
         id="path110"
         style="fill:#bfded5;fill-opacity:1;fill-rule:nonzero;stroke:none"
         d="m 3517.08,4194.97 h 5.9102 v 24.3125 h -5.9102 z" />
      <path
         id="path112"
         style="fill:#bfded5;fill-opacity:1;fill-rule:nonzero;stroke:none"
         d="m 3532.01,4194.97 h 5.9102 v 24.3125 h -5.9102 z" />
      <path
         id="path114"
         style="fill:#bfded5;fill-opacity:1;fill-rule:nonzero;stroke:none"
         d="m 3546.93,4194.97 h 5.9102 v 24.3125 h -5.9102 z" />
      <path
         id="path116"
         style="fill:#bfded5;fill-opacity:1;fill-rule:nonzero;stroke:none"
         d="m 3561.86,4194.97 h 5.8906 v 24.3125 h -5.8906 z" />
      <path
         id="path118"
         style="fill:#bfded5;fill-opacity:1;fill-rule:nonzero;stroke:none"
         d="m 3576.78,4194.97 h 5.8984 v 24.3125 h -5.8984 z" />
      <path
         id="path120"
         style="fill:#bfded5;fill-opacity:1;fill-rule:nonzero;stroke:none"
         d="m 3591.69,4194.97 h 5.9102 v 24.3125 h -5.9102 z" />
      <path
         id="path122"
         style="fill:#f1f0df;fill-opacity:1;fill-rule:nonzero;stroke:none"
         d="m 3469.76,4540.38 h -41.26 l -5.42,63.7 c 14.96,2.97 30.1,5.31 45.48,7.01 0.36,-24.28 0.76,-48.91 1.2,-70.71" />
      <path
         id="path124"
         style="fill:#fabc27;fill-opacity:1;fill-rule:nonzero;stroke:none"
         d="m 3463.75,4465.45 c -11.18,0 -29.16,3.45 -29.16,3.45 l -6.09,71.48 h 41.26 c 0.78,-39 1.66,-68.92 2.56,-71.48 0.91,-2.59 -2.97,-3.45 -8.57,-3.45" />
    </g>
  </g>
</svg>
