<?xml version="1.0" encoding="UTF-8" standalone="no"?>
<svg
   xmlns:dc="http://purl.org/dc/elements/1.1/"
   xmlns:cc="http://creativecommons.org/ns#"
   xmlns:rdf="http://www.w3.org/1999/02/22-rdf-syntax-ns#"
   xmlns:svg="http://www.w3.org/2000/svg"
   xmlns="http://www.w3.org/2000/svg"
   xmlns:sodipodi="http://sodipodi.sourceforge.net/DTD/sodipodi-0.dtd"
   xmlns:inkscape="http://www.inkscape.org/namespaces/inkscape"
   width="37.919376mm"
   height="37.919411mm"
   viewBox="0 0 37.919376 37.919411"
   version="1.1"
   id="svg1715"
   inkscape:version="1.0.1 (3bc2e813f5, 2020-09-07)"
   sodipodi:docname="5.svg">
  <defs
     id="defs1709">
    <clipPath
       clipPathUnits="userSpaceOnUse"
       id="clipPath836">
      <path
         d="m 445.982,257.184 c 0,-29.682 24.063,-53.744 53.745,-53.744 v 0 c 29.681,0 53.743,24.062 53.743,53.744 v 0 c 0,29.682 -24.062,53.743 -53.743,53.743 v 0 c -29.682,0 -53.745,-24.061 -53.745,-53.743"
         id="path834" />
    </clipPath>
  </defs>
  <sodipodi:namedview
     id="base"
     pagecolor="#ffffff"
     bordercolor="#666666"
     borderopacity="1.0"
     inkscape:pageopacity="0.0"
     inkscape:pageshadow="2"
     inkscape:zoom="5.6"
     inkscape:cx="94.013658"
     inkscape:cy="105.03862"
     inkscape:document-units="mm"
     inkscape:current-layer="layer1"
     inkscape:document-rotation="0"
     showgrid="false"
     inkscape:window-width="1267"
     inkscape:window-height="1041"
     inkscape:window-x="1975"
     inkscape:window-y="137"
     inkscape:window-maximized="0" />
  <metadata
     id="metadata1712">
    <rdf:RDF>
      <cc:Work
         rdf:about="">
        <dc:format>image/svg+xml</dc:format>
        <dc:type
           rdf:resource="http://purl.org/dc/dcmitype/StillImage" />
        <dc:title></dc:title>
      </cc:Work>
    </rdf:RDF>
  </metadata>
  <g
     inkscape:label="Layer 1"
     inkscape:groupmode="layer"
     id="layer1"
     transform="translate(-358.26055,63.560897)">
    <g
       id="g1660"
       transform="matrix(0.35277777,0,0,-0.35277777,200.92777,46.127625)">
      <g
         id="g806"
         transform="translate(553.4707,257.1841)">
        <path
           d="m 0,0 c 0,-29.682 -24.062,-53.744 -53.744,-53.744 -29.682,0 -53.744,24.062 -53.744,53.744 0,29.682 24.062,53.744 53.744,53.744 C -24.062,53.744 0,29.682 0,0"
           style="fill:#f8f8e7;fill-opacity:1;fill-rule:nonzero;stroke:none"
           id="path808" />
      </g>
      <g
         id="g830">
        <g
           id="g832"
           clip-path="url(#clipPath836)">
          <g
             id="g838"
             transform="translate(484.6309,261.1436)">
            <path
               d="m 0,0 c -0.273,2.988 1.854,5.136 4.38,2.849 0.061,2.862 5.673,0.039 6.578,-0.968 2.443,3.556 8.79,-0.325 8.901,-3.961 0.1,-3.262 -3.034,-5.696 -5.963,-3.74 C 12.032,-9.273 6.442,-7.824 5.729,-4.188 2.692,-4.12 -0.516,-5.009 0,0"
               style="fill:#5be9d9;fill-opacity:1;fill-rule:nonzero;stroke:none"
               id="path840" />
          </g>
          <g
             id="g842"
             transform="translate(493.54,207.7842)">
            <path
               d="m 0,0 c 4.769,2.53 10.008,12.748 10.469,14.519 0.653,2.514 2.754,4.495 3.777,6.862 0.701,1.622 1.366,2.969 2.358,4.464 0.824,1.239 1.982,3.112 3.253,3.884 -0.067,0.792 -1.891,3.071 -2.718,3.458 -1.022,0.478 -1.502,2.051 -2.333,1.349 C 13.141,33.131 10.573,29.312 8.539,28.527 7.439,28.104 6.371,27.729 5.217,27.593 4.244,27.479 4.133,27.604 3.651,26.741 2.85,25.305 2.625,23.167 2.353,21.583 1.897,18.936 2.024,16.22 2.026,13.547 2.027,11.781 2.152,10.186 2.605,8.489"
               style="fill:#f0b39e;fill-opacity:1;fill-rule:nonzero;stroke:none"
               id="path844" />
          </g>
          <g
             id="g846"
             transform="translate(532.8896,265.2998)">
            <path
               d="m 0,0 c -4.562,7.212 -8.734,14.685 -12.982,22.106 -2.459,4.297 -5.594,5.992 -9.905,8.567 -3.551,2.123 -10.009,7.032 -12.355,3.472 3.928,-6.865 11.655,-7.511 15.558,-16.135 -4.494,4.003 -8.752,8.079 -13.806,11.665 -5.609,3.978 -17.091,9.873 -19.563,6.313 -0.482,-4.432 9.186,-7.06 13.413,-10.311 2.327,-1.789 5.993,-4.372 8.198,-6.633 2.26,-2.319 2.373,-3.614 4.336,-6.232 -1.575,2.599 -6.404,6.119 -8.986,7.931 -1.695,1.19 -4.456,3.111 -6.265,4.128 -4.82,2.71 -8.861,3.59 -14.471,4.724 -4.258,0.861 -3.472,-3.238 -0.032,-5.754 6.686,-4.891 8.455,-3.427 13.292,-6.35 2.097,-1.267 9.34,-8.219 10.542,-10.132 -3.93,3.854 -10.883,6.071 -16.036,7.873 -2.7,0.945 -9.359,3.152 -7.083,-2.084 1.887,-4.338 8.471,-5.286 12.225,-7.355 2.768,-1.524 5.328,-3.737 7.398,-6.546 2.027,-2.752 7.076,-8.101 8.094,-11.093 -2.594,2.715 -14.102,9.786 -16.511,5.539 -0.38,-3.248 1.359,-4.831 4.023,-6.369 3.418,-1.973 7.498,-4.412 10.862,-7.034 8.122,-6.331 25.065,-26.83 32.597,-34.025 2.912,1.497 4.825,8.293 7.676,9.923 1.904,1.089 6.577,7.031 7.6,9.127 0.799,1.638 -9.701,14.486 -10.236,16.568 C 5.716,-10.859 4.465,-8.836 0,0"
               style="fill:#e4a295;fill-opacity:1;fill-rule:nonzero;stroke:none"
               id="path848" />
          </g>
          <g
             id="g850"
             transform="translate(493.6846,281.5981)">
            <path
               d="m 0,0 c -1.428,0.323 -4.874,-0.25 -2.656,-2.198 -1.401,-0.552 -2.352,-4.272 -0.477,-3.996 0.688,-1.116 1.291,-2.33 2.761,-1.219 0.934,-1.667 1.625,-3.347 4.026,-2.064 0.69,-1.645 3.683,-1.713 3.7,0.25 0.003,0.504 -0.652,1.028 -0.686,1.514 -0.072,1.027 0.47,1.473 0.144,2.543 -0.5,1.646 -1.802,1.853 -2.696,2.871 C 2.86,-0.868 3.296,-0.417 0,0"
               style="fill:#5be9d9;fill-opacity:1;fill-rule:nonzero;stroke:none"
               id="path852" />
          </g>
          <g
             id="g854"
             transform="translate(494.2148,278.2246)">
            <path
               d="m 0,0 c -2.994,0.301 -1.989,-3.596 0.554,-2.163 -0.123,-0.514 0.02,-1.49 0.487,-1.834 0.69,-0.509 3.185,0.611 3.422,1.347 C 4.731,-1.817 3.728,-0.055 2.81,-0.819 2.377,-0.283 2.097,0.9 1.281,0.989 0.649,1.058 -0.665,0.038 -0.66,-0.377"
               style="fill:#c1f9f3;fill-opacity:1;fill-rule:nonzero;stroke:none"
               id="path856" />
          </g>
          <g
             id="g858"
             transform="translate(504.5723,280.6494)">
            <path
               d="M 0,0 C 0.783,0.138 1.602,-1.216 2.003,-1.725 3.175,-3.208 3.973,-4.293 3.145,-6.107 1.842,-5.926 1.057,-4.151 0.39,-3.271 -0.153,-2.554 -1.299,-1.314 0,0"
               style="fill:#c1f9f3;fill-opacity:1;fill-rule:nonzero;stroke:none"
               id="path860" />
          </g>
          <g
             id="g862"
             transform="translate(501.6172,275.1616)">
            <path
               d="m 0,0 c 0.263,-0.458 0.104,-1.042 -0.354,-1.304 -0.458,-0.262 -1.042,-0.104 -1.305,0.355 -0.262,0.458 -0.104,1.042 0.355,1.304 C -0.846,0.617 -0.262,0.458 0,0"
               style="fill:#c1f9f3;fill-opacity:1;fill-rule:nonzero;stroke:none"
               id="path864" />
          </g>
          <g
             id="g866"
             transform="translate(521.3525,278.522)">
            <path
               d="M 0,0 C 0.205,1.185 1.551,1.409 2.332,0.512 2.549,1.569 3.136,1.191 3.758,0.705 4.145,0.403 4.186,-0.238 4.529,-0.572 4.823,-0.859 5.257,-0.851 5.503,-1.098 6.141,-1.737 6.282,-2.409 6.648,-3.122 6.979,-3.766 8.341,-5.12 8.594,-6.133 8.809,-6.996 8.747,-7.848 7.74,-8.075 6.249,-8.411 6.094,-6.706 5.316,-6.211 4.675,-5.803 0.304,-5.781 2.331,-3.496 1.764,-2.718 -1.322,-2.979 0,0"
               style="fill:#5be9d9;fill-opacity:1;fill-rule:nonzero;stroke:none"
               id="path868" />
          </g>
          <g
             id="g870"
             transform="translate(518.0391,279.8101)">
            <path
               d="m 0,0 c 0.151,-0.265 0.06,-0.603 -0.206,-0.755 -0.265,-0.151 -0.603,-0.059 -0.755,0.206 -0.151,0.265 -0.06,0.603 0.206,0.755 C -0.49,0.357 -0.152,0.265 0,0"
               style="fill:#c1f9f3;fill-opacity:1;fill-rule:nonzero;stroke:none"
               id="path872" />
          </g>
          <g
             id="g874"
             transform="translate(520.8721,273.083)">
            <path
               d="m 0,0 c 0.229,-0.401 0.09,-0.911 -0.311,-1.141 -0.4,-0.229 -0.911,-0.089 -1.14,0.311 -0.229,0.4 -0.09,0.911 0.31,1.14 C -0.74,0.54 -0.229,0.4 0,0"
               style="fill:#c1f9f3;fill-opacity:1;fill-rule:nonzero;stroke:none"
               id="path876" />
          </g>
          <g
             id="g878"
             transform="translate(488.7373,198.1924)">
            <path
               d="m 0,0 c -0.309,2.554 3.588,-6.078 4.803,-3.982 1.913,3.297 1.746,18.376 3.236,21.819 0.77,1.779 1.629,3.128 1.848,4.976 0.397,3.364 -0.764,6.445 -0.286,9.704 0.587,3.998 0.779,8.148 1.688,12.083 0.535,2.318 0.882,9.428 4.311,10.275 0.417,1.785 0.002,2.655 -1.337,3.967 -1.14,1.117 -2.635,1.821 -4.089,0.898 C 8.976,58.98 7.858,57.556 7.111,56.397 4.998,53.117 4.319,51.605 3.863,49.043 c -0.159,2.28 1.243,5.218 2.163,7.56 0.418,1.063 2.182,3.302 1.858,4.416 -0.393,1.348 -3.937,3.083 -5.418,0.774 -1.86,2.674 -3.22,2.095 -4.989,1.924 -1.263,-0.123 -1.42,-1.031 -2.538,-0.934 -0.237,0.021 -0.694,0.466 -0.938,0.548 -0.684,0.231 -1.54,1.05 -2.271,1.114 -2.39,0.208 -3.215,-1.074 -4.441,-2.816 -2.484,-3.531 -4.493,-7.259 -6.561,-11.012 -3.922,-7.117 0.296,-19.43 1.934,-26.445 0.417,-1.785 0.022,-9.767 0.115,-11.781 0.229,-4.908 0,0 -0.253,-4.873 -0.052,-1.018 -0.087,-2.156 -0.143,-3.104 -0.113,-1.937 0.792,-1.845 2.863,-2.421 2.807,-0.78 5.127,-0.624 7.947,-0.965 C -4.96,0.806 -3.557,-0.262 0,0"
               style="fill:#f0b39e;fill-opacity:1;fill-rule:nonzero;stroke:none"
               id="path880" />
          </g>
          <g
             id="g882"
             transform="translate(489.1885,259.1387)">
            <path
               d="m 0,0 c -2.955,-1.861 -3.201,-6.47 -4.036,-9.575 0.73,1.994 2.432,4.092 3.292,6.046 C -0.249,-2.404 -0.979,-1.304 0,0"
               style="fill:#e4a295;fill-opacity:1;fill-rule:nonzero;stroke:none"
               id="path884" />
          </g>
          <g
             id="g886"
             transform="translate(482.7168,259.5542)">
            <path
               d="M 0,0 C 0.76,0.695 -3.274,-6.933 -3.265,-7.08 -0.945,-5.639 -1.251,-2.619 0,0"
               style="fill:#e4a295;fill-opacity:1;fill-rule:nonzero;stroke:none"
               id="path888" />
          </g>
          <g
             id="g890"
             transform="translate(504.084,252.6455)">
            <path
               d="m 0,0 c 0.206,2.002 -3.492,2.095 -3.184,0.19 -3.504,-0.702 -2.334,-3.09 -1.958,-5.373 0.164,-0.998 -0.469,-1.784 0.802,-2.397 0.532,-0.257 1.089,-0.47 1.341,0.389 1.823,-1.284 1.684,1.335 1.739,2.392 1.451,0.163 2.136,0.742 2.376,2.026 C 1.265,-1.979 1.408,-0.262 0,0"
               style="fill:#5be9d9;fill-opacity:1;fill-rule:nonzero;stroke:none"
               id="path892" />
          </g>
        </g>
      </g>
      <g
         id="g906"
         transform="translate(479.1602,242.1797)">
        <path
           d="m 0,0 c 2.097,1.052 4.571,1.365 7.001,0.679 5.166,-1.459 8.183,-6.85 6.723,-12.016 -1.459,-5.166 -6.85,-8.182 -12.016,-6.723 -4.612,1.303 -7.5,5.74 -7.03,10.352 l -0.729,0.206 c -0.574,-5.014 2.545,-9.863 7.556,-11.278 5.563,-1.572 11.368,1.676 12.939,7.24 C 16.017,-5.977 12.769,-0.172 7.205,1.399 4.819,2.073 2.392,1.855 0.27,0.955 Z"
           style="fill:none;stroke:#006663;stroke-width:0.918;stroke-linecap:butt;stroke-linejoin:miter;stroke-miterlimit:10;stroke-dasharray:none;stroke-opacity:1"
           id="path908" />
      </g>
      <g
         id="g910"
         transform="translate(479.6094,245.4414)">
        <path
           d="M 0,0 1.806,-4.764 -3.339,-4.34 Z"
           style="fill:#006663;fill-opacity:1;fill-rule:nonzero;stroke:none"
           id="path912" />
      </g>
    </g>
  </g>
</svg>
