<?xml version="1.0" encoding="UTF-8" standalone="no"?>
<svg
   xmlns:dc="http://purl.org/dc/elements/1.1/"
   xmlns:cc="http://creativecommons.org/ns#"
   xmlns:rdf="http://www.w3.org/1999/02/22-rdf-syntax-ns#"
   xmlns:svg="http://www.w3.org/2000/svg"
   xmlns="http://www.w3.org/2000/svg"
   xmlns:sodipodi="http://sodipodi.sourceforge.net/DTD/sodipodi-0.dtd"
   xmlns:inkscape="http://www.inkscape.org/namespaces/inkscape"
   width="37.919731mm"
   height="37.91938mm"
   viewBox="0 0 37.919731 37.91938"
   version="1.1"
   id="svg3856"
   inkscape:version="1.0.1 (3bc2e813f5, 2020-09-07)"
   sodipodi:docname="2.svg">
  <defs
     id="defs3850">
    <clipPath
       id="clipPath162"
       clipPathUnits="userSpaceOnUse">
      <path
         id="path160"
         d="m 5534.71,4076.94 c 0,-296.82 -240.63,-537.44 -537.44,-537.44 -296.82,0 -537.45,240.62 -537.45,537.44 0,296.82 240.63,537.44 537.45,537.44 296.81,0 537.44,-240.62 537.44,-537.44" />
    </clipPath>
  </defs>
  <sodipodi:namedview
     id="base"
     pagecolor="#ffffff"
     bordercolor="#666666"
     borderopacity="1.0"
     inkscape:pageopacity="0.0"
     inkscape:pageshadow="2"
     inkscape:zoom="3.959798"
     inkscape:cx="27.150189"
     inkscape:cy="65.330853"
     inkscape:document-units="mm"
     inkscape:current-layer="layer1"
     inkscape:document-rotation="0"
     showgrid="false"
     inkscape:window-width="1267"
     inkscape:window-height="1041"
     inkscape:window-x="104"
     inkscape:window-y="0"
     inkscape:window-maximized="0" />
  <metadata
     id="metadata3853">
    <rdf:RDF>
      <cc:Work
         rdf:about="">
        <dc:format>image/svg+xml</dc:format>
        <dc:type
           rdf:resource="http://purl.org/dc/dcmitype/StillImage" />
        <dc:title></dc:title>
      </cc:Work>
    </rdf:RDF>
  </metadata>
  <g
     inkscape:label="Layer 1"
     inkscape:groupmode="layer"
     id="layer1"
     transform="translate(-86.873469,-129.20698)">
    <path
       id="path140"
       style="fill:#f5fade;fill-opacity:1;fill-rule:nonzero;stroke:none;stroke-width:0.0352777"
       d="m 124.7932,148.16667 c 0,10.47115 -8.48889,18.95969 -18.95969,18.95969 -10.471149,0 -18.960041,-8.48854 -18.960041,-18.95969 0,-10.4708 8.488892,-18.95969 18.960041,-18.95969 10.4708,0 18.95969,8.48889 18.95969,18.95969" />
    <g
       clip-path="url(#clipPath162)"
       id="g158"
       transform="matrix(0.03527778,0,0,-0.03527778,-70.459082,291.99206)">
      <path
         id="path164"
         style="fill:#dc877c;fill-opacity:1;fill-rule:nonzero;stroke:none"
         d="m 4632.71,3983.91 c -2.79,5.2 -4.41,11.01 -4.71,16.89 -3.13,61.98 51.67,127.02 87.86,168.41 43.35,49.6 80.23,103.42 126.17,151.03 12.26,12.7 32.61,36.83 52.7,45.3 18.83,7.94 37.65,-11.72 28.65,-30.08 -20.92,-42.67 -61.69,-92.59 -57.35,-112.04 50.33,55.85 70.71,59.57 137.91,133.46 18.13,19.94 86.26,103.19 115.11,108.03 43.89,7.36 14.99,-36.84 3.19,-59.3 -26.86,-51.08 -87.1,-115.48 -121.85,-161.9 61.33,63.38 121.95,130.74 183.15,194.24 17.3,17.93 60.98,60.91 64.83,18.89 1.87,-20.61 -38.15,-68.56 -58.89,-91.43 -43.52,-48.03 -92.41,-105.23 -124.71,-152.07 23.09,23.96 99.11,92.91 140.6,140.59 8.26,9.5 54.84,60.36 72.95,48.93 38.35,-24.17 -145.77,-213.02 -155.92,-228.49 32.34,22.08 91.73,104.36 131.01,134.87 23.18,18.02 44.79,16.6 34.21,-20.3 -11.96,-41.69 -42.84,-71.15 -68.67,-106.61 -37.92,-52.06 -94.01,-104.62 -135.19,-153.19 -34.87,-41.12 -71.86,-80.3 -109.95,-118.47 -26.29,-26.33 -49.85,-58.91 -81.92,-76.55 -61.42,-33.79 -108.84,-23.82 -160.63,22.01 -47.93,42.4 -69.03,72.66 -98.55,127.78" />
      <path
         id="path166"
         style="fill:#d68174;fill-opacity:1;fill-rule:nonzero;stroke:none"
         d="m 4866.25,4215.17 c 4.9,-10.19 7.1,-23.01 7.09,-36.54 0.03,-23.21 -6.48,-48.42 -15.36,-65.62 -8.34,-16.21 -22.56,-36.91 -39.49,-54.31 -16.91,-17.44 -36.6,-31.46 -55.25,-35.03 -2.35,-0.46 -3.89,-2.74 -3.43,-5.09 0.46,-2.35 2.74,-3.89 5.09,-3.43 21.56,4.25 42.18,19.41 59.82,37.5 17.61,18.14 32.18,39.33 40.97,56.39 9.6,18.67 16.31,44.79 16.34,69.59 -0.01,14.45 -2.3,28.47 -7.95,40.29 -1.04,2.17 -3.63,3.08 -5.79,2.04 -2.16,-1.04 -3.07,-3.63 -2.04,-5.79" />
      <path
         id="path168"
         style="fill:#d68174;fill-opacity:1;fill-rule:nonzero;stroke:none"
         d="m 4958.41,4252.56 c 5.89,-6.12 13.9,-10.4 21.92,-14.34 8.02,-3.91 16.12,-7.45 22.03,-11.33 15.94,-10.44 29.88,-22.92 44.56,-35.85 25.3,-22.31 50.09,-44.95 74.38,-68.36 1.73,-1.67 4.48,-1.62 6.14,0.11 1.66,1.73 1.61,4.47 -0.11,6.14 -24.4,23.52 -49.3,46.25 -74.68,68.62 -14.63,12.89 -28.88,25.69 -45.54,36.6 -6.86,4.48 -15.18,8.05 -22.97,11.87 -7.79,3.78 -15,7.84 -19.46,12.54 -1.66,1.73 -4.4,1.8 -6.14,0.14 -1.73,-1.66 -1.79,-4.41 -0.13,-6.14" />
      <path
         id="path170"
         style="fill:#dc877c;fill-opacity:1;fill-rule:nonzero;stroke:none"
         d="m 4440.68,3772.5 c 47.86,49.37 99.4,94.63 147.16,144.29 24.25,25.21 49.71,62.34 79.68,80.83 38.84,-32.97 70.48,-75.66 107.39,-111.23 7.66,-7.39 15.25,-14.91 23.11,-22.05 -38.25,-70.51 -92.84,-135.42 -143.49,-197.44 -7.65,-9.37 -19.59,-24.52 -29.68,-30.64 -8.15,-4.95 -8.92,-4.11 -19.37,-0.85 -27.43,8.55 -57.92,21.38 -80.25,39.81 -31.78,26.25 -60.76,56.26 -84.55,97.28" />
      <path
         id="path172"
         style="fill:#72cfc1;fill-opacity:1;fill-rule:nonzero;stroke:none"
         d="m 5164.54,4339.13 c -0.97,25.07 -29.3,55.27 -51.3,25.24 -7.61,14.78 -32.02,29.28 -43.31,9.42 -10.9,4.48 -24.14,5.29 -25.04,-9.06 -34.13,18.75 -104.14,11.73 -125.99,-61.94 -2.23,-7.48 3.41,-18.99 0.37,-25.86 -3.14,-7.09 -17.23,-14.34 -22.74,-21.59 -14.9,-19.65 -19.3,-49.52 -1.07,-69.02 -22.56,-10.5 -34.33,-36.35 -15.45,-55.89 -17.8,-18.57 -36.84,-26.43 -49,-50.25 -13.63,-26.68 -21.11,-49.09 -5.69,-77.82 8.22,-15.29 36.47,-34.19 36.47,-34.19 0,0 1.53,-35.67 15.37,-51.23 20.9,-23.47 69.71,-26.94 97.96,-18.04 8.99,2.83 20.14,16.07 26.92,17.7 8.26,1.99 22.4,-3.35 30.92,-4.2 50.52,-5.04 77.44,-6.88 112.91,29.26 23.32,23.77 36.44,33.9 34.09,66.66 65.49,13.14 119.24,49.95 113.21,120.7 -0.6,7.12 0.1,15.76 -3.05,22.51 -5.71,12.2 -22.98,16.34 -28.14,26.2 -6.91,13.24 -0.41,24.67 -0.83,43.06 -0.72,31.81 -18.73,48.33 -34.01,70.66 -13.59,19.85 -11.76,23.49 -62.6,47.68" />
      <path
         id="path174"
         style="fill:#96dbd0;fill-opacity:1;fill-rule:nonzero;stroke:none"
         d="m 5072.29,4296.21 c -9.23,17.85 -59.33,27.11 -57.88,-2.51 -17.85,-0.04 -39.35,-3.32 -52.23,-17 -9.63,-10.22 -16.85,-32.58 -6.03,-44.82 -23.15,-12.61 -30.93,-23.49 -32.96,-50.3 -1.73,-22.99 1.33,-38.12 20.5,-51.63 -7.62,-20.54 3.83,-46.54 23.33,-55.77 10.94,-5.16 28,-6.35 40.22,-4.95 9.38,1.08 14.13,5.21 22.03,1.52 8.47,-3.97 11.18,-14.31 21.27,-17.74 12.44,-4.22 26.55,-0.01 37.76,5.39 16.3,7.83 40.48,34.29 32.62,55.23 23.69,10.5 50.72,15.96 59.7,42.79 6.01,17.95 8.45,47.39 0.78,64.57 -4.82,10.79 -6,3.49 -7.41,16.94 -3.08,29.62 0.33,50.74 -25.72,72.46 -15.47,12.91 -36.31,12.38 -54.73,12.73 -17.83,0.33 -21.22,-4.16 -21.25,-26.91" />
      <path
         id="path176"
         style="fill:#72cfc1;fill-opacity:1;fill-rule:nonzero;stroke:none"
         d="m 4850.01,4104.1 c -4.84,9.37 -31.12,14.23 -30.36,-1.31 -9.37,-0.02 -20.65,-1.74 -27.4,-8.92 -5.05,-5.36 -8.84,-17.09 -3.16,-23.51 -12.15,-6.61 -16.23,-12.32 -17.29,-26.39 -0.91,-12.06 0.7,-19.99 10.75,-27.08 -4,-10.78 2.01,-24.41 12.24,-29.25 5.74,-2.72 14.68,-3.34 21.1,-2.6 4.92,0.57 7.41,2.73 11.55,0.79 4.45,-2.08 5.87,-7.5 11.16,-9.3 6.53,-2.22 13.93,-0.01 19.81,2.83 8.55,4.1 21.24,17.98 17.11,28.96 12.43,5.52 26.61,8.38 31.32,22.45 3.15,9.42 4.43,24.87 0.41,33.88 -2.53,5.65 -3.15,1.83 -3.89,8.89 -1.62,15.53 0.18,26.6 -13.49,38 -8.11,6.77 -19.05,6.49 -28.72,6.68 -9.34,0.18 -11.12,-2.17 -11.14,-14.12" />
      <path
         id="path178"
         style="fill:#f09f8d;fill-opacity:1;fill-rule:nonzero;stroke:none"
         d="m 4833.67,3731.3 c -4.17,4.16 -7.41,9.26 -9.4,14.8 -21,58.4 12.57,136.55 35.17,186.66 27.08,60.05 46.75,122.26 76.9,181.16 8.04,15.71 20.5,44.71 37.26,58.64 15.73,13.08 39.44,-0.29 36.16,-20.47 -7.63,-46.9 -32.15,-106.5 -22.36,-123.86 31.95,68.06 50.37,77.54 93.23,167.75 11.56,24.35 52.58,123.79 78.78,136.81 39.87,19.78 25.05,-30.91 20.28,-55.83 -10.87,-56.67 -49.83,-135.79 -69.6,-190.3 40.28,78.45 78.75,160.51 118.87,239.04 11.34,22.19 40.67,76 56.55,36.9 7.78,-19.17 -16.6,-76.68 -29.81,-104.59 -27.7,-58.59 -57.88,-127.52 -75.18,-181.72 15.13,29.63 67.86,117.67 93.73,175.35 5.14,11.49 34.94,73.68 55.59,68.01 43.72,-12 -77.64,-246.17 -82.86,-263.92 24.53,30.52 57.47,126.5 86.2,167.1 16.97,23.97 38.04,28.89 38.64,-9.5 0.66,-43.37 -20.35,-80.52 -34.77,-121.95 -21.17,-60.83 -59.58,-127.42 -84.88,-185.84 -21.44,-49.47 -45.45,-97.71 -70.82,-145.29 -17.51,-32.83 -30.6,-70.85 -56.16,-97.04 -48.97,-50.17 -97.24,-54.39 -160.11,-25.58 -58.18,26.66 -87.15,49.5 -131.41,93.67" />
      <path
         id="path180"
         style="fill:#f09f8d;fill-opacity:1;fill-rule:nonzero;stroke:none"
         d="m 4711.3,3473.24 c 31.46,61.14 67.65,119.42 98.92,180.81 15.88,31.16 29.48,74.08 52.79,100.48 46.74,-20.28 89.4,-51.94 135.05,-75.26 9.48,-4.85 18.92,-9.85 28.52,-14.4 -16.13,-78.57 -49.53,-156.54 -79.99,-230.59 -4.6,-11.19 -11.63,-29.16 -19.5,-37.94 -6.37,-7.1 -7.34,-6.52 -18.29,-6.43 -28.74,0.22 -61.63,3.64 -88.34,14.79 -38.05,15.9 -74.48,36.2 -109.16,68.54" />
      <path
         id="path182"
         style="fill:#72cfc1;fill-opacity:1;fill-rule:nonzero;stroke:none"
         d="m 5162.25,4072.88 c 5.64,16.77 12.12,26.63 32.46,27.76 15.28,0.86 28.34,-14.16 33.38,-27.15 2.57,-6.66 4.57,-16.71 1.71,-23.24 -2.57,-5.92 -8.07,-7.77 -9.18,-14.7 -1.79,-11.12 7.12,-24.6 3.46,-36.81 -2.58,-8.63 -6.79,-7.86 -12.01,-13.17 -7.46,-7.61 -10.9,-18.07 -25.75,-18.29 -12.52,-0.19 -12.12,5.96 -21.95,11.18 -7.19,3.81 -15.29,0.52 -22.19,4.31 -9.55,5.24 -17.52,19.26 -15.62,30.34 2.03,11.81 7.68,11.85 18.34,14.09 -10.88,18.58 -7.25,60.75 17.35,45.68" />
      <path
         id="path184"
         style="fill:#bae8e1;fill-opacity:1;fill-rule:nonzero;stroke:none"
         d="m 5092.83,4209.78 c -11.37,8.76 -41.92,10.02 -53.63,1.47 -8.33,-6.08 -10.03,-16.13 -9.54,-26.62 0.13,-2.68 2.9,-11.72 2.48,-13.25 -1.29,-4.63 -6.1,-6.3 -7.99,-11.07 -2.27,-5.76 -0.52,-17.24 2.09,-22.31 6.56,-12.69 24.3,-13.16 36.53,-9.7 5.36,-18.48 31.91,-18.78 43.19,-5.22 7.7,9.26 18.65,40.1 4.32,48.66 10.63,0.6 15.66,12.15 13.13,21.65 -3.19,12 -14.11,14.74 -30.58,16.39" />
      <path
         id="path186"
         style="fill:#bae8e1;fill-opacity:1;fill-rule:nonzero;stroke:none"
         d="m 4851.14,4031.73 c 6.63,7.57 8.86,28.91 3.39,37.48 -3.9,6.1 -10.85,7.73 -18.21,7.84 -1.89,0.03 -8.34,-1.51 -9.39,-1.15 -3.18,1.1 -4.14,4.55 -7.39,6.07 -3.94,1.85 -12.05,1.13 -15.71,-0.48 -9.18,-4.03 -10.29,-16.43 -8.4,-25.14 -13.16,-2.95 -14.55,-21.51 -5.55,-30 6.15,-5.8 27.26,-14.82 33.87,-5.17 -0.04,-7.46 7.82,-11.49 14.58,-10.13 8.55,1.7 10.94,9.22 12.81,20.68" />
      <path
         id="path188"
         style="fill:#bae8e1;fill-opacity:1;fill-rule:nonzero;stroke:none"
         d="m 5209.81,4061.66 c 3.75,4.27 5.01,16.33 1.92,21.18 -2.2,3.45 -6.13,4.37 -10.29,4.43 -1.08,0.02 -4.72,-0.85 -5.32,-0.64 -1.79,0.62 -2.34,2.57 -4.18,3.43 -2.22,1.05 -6.8,0.63 -8.87,-0.27 -5.19,-2.29 -5.81,-9.29 -4.75,-14.22 -7.44,-1.66 -8.22,-12.16 -3.13,-16.96 3.46,-3.28 15.4,-8.37 19.14,-2.92 -0.02,-4.21 4.42,-6.49 8.24,-5.73 4.83,0.96 6.18,5.22 7.24,11.7" />
      <path
         id="path190"
         style="fill:#bae8e1;fill-opacity:1;fill-rule:nonzero;stroke:none"
         d="m 5005.21,4440.6 c 6.3,7.2 8.42,27.51 3.22,35.66 -3.71,5.81 -10.33,7.36 -17.34,7.47 -1.79,0.02 -7.94,-1.44 -8.93,-1.1 -3.03,1.05 -3.95,4.32 -7.04,5.78 -3.74,1.76 -11.47,1.07 -14.94,-0.46 -8.74,-3.84 -9.8,-15.63 -8,-23.93 -12.53,-2.8 -13.85,-20.47 -5.29,-28.55 5.85,-5.52 25.94,-14.1 32.24,-4.91 -0.04,-7.1 7.44,-10.93 13.88,-9.65 8.13,1.62 10.41,8.78 12.2,19.69" />
      <path
         id="path192"
         style="fill:#96dbd0;fill-opacity:1;fill-rule:nonzero;stroke:none"
         d="m 5210.45,3936.31 c 1.76,0.87 4.73,0.99 6.66,1.02 2.74,-5.11 3.16,-11.25 2.34,-16.91 -1.33,0 -2.9,-0.35 -4.24,-0.35 1.01,-12.37 -2.17,-27.98 -19.51,-19.07 l -12.3,12.61 c -1.92,6.21 5.28,12.58 9.92,12.79 -1.61,7.2 3.9,13.8 11.22,12.02 0.83,-1.79 2.13,-3.56 2.46,-5.55" />
      <path
         id="path194"
         style="fill:#126664;fill-opacity:1;fill-rule:nonzero;stroke:none"
         d="m 4979.49,3931.62 c 20.97,10.51 45.72,13.65 70.01,6.79 51.66,-14.6 81.82,-68.5 67.23,-120.16 -14.59,-51.66 -68.5,-81.82 -120.16,-67.23 -46.12,13.03 -75.01,57.39 -70.3,103.52 l -7.29,2.06 c -5.74,-50.14 25.45,-98.63 75.55,-112.79 55.65,-15.71 113.69,16.77 129.41,72.4 15.71,55.64 -16.76,113.69 -72.41,129.41 -23.85,6.73 -48.13,4.56 -69.34,-4.45 l -2.7,-9.55" />
      <path
         id="path196"
         style="fill:#126664;fill-opacity:1;fill-rule:nonzero;stroke:none"
         d="m 4979.49,3931.62 2.06,-4.11 c 12.8,6.42 27.06,9.95 41.72,9.95 8.26,0 16.64,-1.11 24.98,-3.47 40.82,-11.52 67.56,-48.85 67.56,-89.31 0,-8.33 -1.13,-16.78 -3.5,-25.19 -11.52,-40.81 -48.85,-67.55 -89.31,-67.55 -8.32,0 -16.78,1.13 -25.18,3.5 -40.8,11.51 -67.46,48.82 -67.46,89.27 0,3.11 0.16,6.23 0.48,9.36 l 0.39,3.84 -16.19,4.57 -0.62,-5.36 c -0.47,-4.15 -0.71,-8.29 -0.71,-12.4 0,-47.74 31.41,-91.7 79.57,-105.32 9.9,-2.8 19.89,-4.14 29.72,-4.14 47.76,0 91.73,31.53 105.35,79.7 2.8,9.91 4.13,19.89 4.13,29.72 0,47.76 -31.52,91.73 -79.7,105.35 -9.86,2.79 -19.8,4.12 -29.59,4.12 -14.91,0 -29.44,-3.08 -42.8,-8.76 l -2.02,-0.86 -6.12,-21.68 9.3,4.66 -2.06,4.11 4.42,-1.25 2.7,9.55 -4.42,1.25 1.79,-4.23 c 12.26,5.21 25.57,8.03 39.21,8.03 8.96,-0.01 18.05,-1.22 27.1,-3.77 44.12,-12.45 73.01,-52.79 73.01,-96.52 0,-9 -1.22,-18.14 -3.78,-27.22 -12.45,-44.12 -52.79,-73.01 -96.52,-73.01 -9,0 -18.14,1.22 -27.22,3.78 -44.1,12.45 -72.88,52.77 -72.88,96.49 0,3.76 0.21,7.55 0.64,11.35 l -4.56,0.53 -1.24,-4.42 7.28,-2.06 1.25,4.42 -4.57,0.47 c -0.35,-3.45 -0.52,-6.88 -0.52,-10.3 0,-44.47 29.28,-85.42 74.14,-98.11 9.22,-2.6 18.53,-3.85 27.68,-3.85 44.49,0 85.46,29.37 98.15,74.25 2.6,9.22 3.84,18.52 3.84,27.68 0,44.49 -29.36,85.46 -74.24,98.15 -9.16,2.58 -18.39,3.81 -27.48,3.81 -16.14,0 -31.8,-3.88 -45.84,-10.92 l 2.06,-4.1 4.42,-1.25 -4.42,1.25" />
      <path
         id="path198"
         style="fill:#126664;fill-opacity:1;fill-rule:nonzero;stroke:none"
         d="m 4983.98,3964.23 18.06,-47.63 -51.45,4.24 z" />
    </g>
  </g>
</svg>
