<?xml version="1.0" encoding="UTF-8" standalone="no"?>
<svg
   xmlns:dc="http://purl.org/dc/elements/1.1/"
   xmlns:cc="http://creativecommons.org/ns#"
   xmlns:rdf="http://www.w3.org/1999/02/22-rdf-syntax-ns#"
   xmlns:svg="http://www.w3.org/2000/svg"
   xmlns="http://www.w3.org/2000/svg"
   xmlns:sodipodi="http://sodipodi.sourceforge.net/DTD/sodipodi-0.dtd"
   xmlns:inkscape="http://www.inkscape.org/namespaces/inkscape"
   width="37.919022mm"
   height="37.919376mm"
   viewBox="0 0 37.919022 37.919376"
   version="1.1"
   id="svg4033"
   inkscape:version="1.0.1 (3bc2e813f5, 2020-09-07)"
   sodipodi:docname="3.svg">
  <defs
     id="defs4027">
    <clipPath
       id="clipPath352"
       clipPathUnits="userSpaceOnUse">
      <path
         id="path350"
         d="m 6972.22,4076.94 c 0,-296.82 -240.63,-537.44 -537.45,-537.44 -296.81,0 -537.43,240.62 -537.43,537.44 0,296.82 240.62,537.44 537.43,537.44 296.82,0 537.45,-240.62 537.45,-537.44" />
    </clipPath>
  </defs>
  <sodipodi:namedview
     id="base"
     pagecolor="#ffffff"
     bordercolor="#666666"
     borderopacity="1.0"
     inkscape:pageopacity="0.0"
     inkscape:pageshadow="2"
     inkscape:zoom="1.979899"
     inkscape:cx="130.66115"
     inkscape:cy="186.51303"
     inkscape:document-units="mm"
     inkscape:current-layer="layer1"
     inkscape:document-rotation="0"
     showgrid="false"
     inkscape:window-width="1267"
     inkscape:window-height="1041"
     inkscape:window-x="156"
     inkscape:window-y="0"
     inkscape:window-maximized="0" />
  <metadata
     id="metadata4030">
    <rdf:RDF>
      <cc:Work
         rdf:about="">
        <dc:format>image/svg+xml</dc:format>
        <dc:type
           rdf:resource="http://purl.org/dc/dcmitype/StillImage" />
        <dc:title></dc:title>
      </cc:Work>
    </rdf:RDF>
  </metadata>
  <g
     inkscape:label="Layer 1"
     inkscape:groupmode="layer"
     id="layer1"
     transform="translate(-25.641679,78.679927)">
    <path
       id="path330"
       style="fill:#f5fade;fill-opacity:1;fill-rule:nonzero;stroke:none;stroke-width:0.0352777"
       d="m 63.560701,-59.72024 c 0,10.47115 -8.488537,18.95969 -18.959687,18.95969 -10.471149,0 -18.959335,-8.48854 -18.959335,-18.95969 0,-10.470795 8.488186,-18.959687 18.959335,-18.959687 10.47115,0 18.959687,8.488892 18.959687,18.959687" />
    <g
       clip-path="url(#clipPath352)"
       id="g348"
       transform="matrix(0.03527778,0,0,-0.03527778,-182.40374,84.105152)">
      <path
         id="path354"
         style="fill:#e18e87;fill-opacity:1;fill-rule:nonzero;stroke:none"
         d="m 6193.84,3669.17 c 0.01,-25.31 0.03,-50.69 -3.85,-75.76 -1.86,-12 -13.96,-36.55 -2.93,-46.47 7.66,-6.87 35.71,-10.06 46.74,-13.69 19.63,-6.46 38.3,-12.94 59.05,-16.87 25.87,-4.89 54.98,-8.24 81.42,-10.12 5.46,14.12 3.24,31.23 4.27,45.99 1.39,20.21 7.75,37.37 13.56,56.81 3.7,12.4 8.84,28.29 5.03,40.72 -65.56,2.95 -127.62,2.05 -203.29,19.39" />
      <path
         id="path356"
         style="fill:#dc877c;fill-opacity:1;fill-rule:nonzero;stroke:none"
         d="m 6288.11,4077.92 c -1.5,57.24 8.57,115.35 9.12,172.66 13.23,3.85 37.49,-21.14 45.62,-30.47 10.3,-11.82 22.44,-27.98 29.01,-42.21 3.68,-7.99 3.53,-16.85 4.91,-25.87 7.78,-51.05 34.09,-96.57 52.19,-144.1 30.12,-79.13 53.28,-160.29 38.73,-245.76 -3.94,-23.11 -10.78,-43.85 -16.97,-65.99 -7.69,-27.53 -95.87,-73.11 -124.26,-74.87 -46.25,-2.87 -34.74,23.67 -77.12,38.89 -66.46,23.88 -16.16,106.04 -3.72,151.09 11.28,40.9 17.09,81.65 32.95,121.12 8.27,20.55 12.8,41.43 15.61,63.46" />
      <path
         id="path358"
         style="fill:#e18e87;fill-opacity:1;fill-rule:nonzero;stroke:none"
         d="m 6196.41,3626.1 c -27.89,40.81 -8.84,179.97 1.53,259.79 3.3,25.37 -1.38,47.27 -1.71,71.46 -0.99,70.07 -0.73,139.42 10.3,208.49 1.95,12.19 7.34,30.57 16.67,44.07 9.14,13.23 29.78,8.8 33.1,-6.93 1.8,-8.55 3.7,-17.14 5.03,-25.83 4.47,-29.06 1.46,-58.4 5.55,-87.51 5.31,-37.8 30.93,-68.66 49.51,-101.3 11.39,-20.02 27.56,-38.47 34.23,-60.84 7.58,-25.43 7.38,-53.61 9.26,-79.74 2.1,-29.15 -5.57,-55.69 -7.02,-82.89 -2.47,-46.47 -21.53,-98.2 -40.49,-141.38 -51.78,-2.79 -76.86,-99.56 -115.96,2.61" />
      <path
         id="path360"
         style="fill:#dc877c;fill-opacity:1;fill-rule:nonzero;stroke:none"
         d="m 6637.57,4249.61 c -0.86,15.16 10.19,33.14 17.93,45.39 4.15,6.58 7.73,14.41 14.23,20.9 21.41,10.54 22.52,-14.58 22.54,-29.82 0.04,-30.7 -5.28,-61.44 -19.64,-88.56 -9.56,8.57 -24.42,34.71 -35.06,52.09" />
      <path
         id="path362"
         style="fill:#72cfc1;fill-opacity:1;fill-rule:nonzero;stroke:none"
         d="m 6681.63,4211.63 c 14.09,-8.46 29.88,-13.12 31.92,-29.54 1.49,-11.86 -5.75,-23.68 -12.6,-32.8 15.47,-12.52 21.09,-19.31 18.66,-41.77 -1.09,-10.17 -2.9,-14.82 -1.43,-22.47 4.23,-21.94 25.28,-40.28 5.32,-62.44 -13.55,-15.04 -35.44,-15.45 -54.07,-16.45 23.28,-17.1 18.06,-50.49 -14.43,-49.97 -27.63,0.44 -46.38,9.04 -54.35,34.98 -12.24,39.83 17.49,53.75 35.75,85.43 -30.5,27.58 -47.73,55.7 -44.25,99.3 4.45,0.69 10.33,1.24 15.09,1.43 -17.73,10.58 -23.96,42.67 -2.06,56.12 19.66,12.1 51.86,1.92 76.45,-21.82" />
      <path
         id="path364"
         style="fill:#72cfc1;fill-opacity:1;fill-rule:nonzero;stroke:none"
         d="m 6359.52,4099.19 c -10.84,23.48 -30.71,-19.62 -32.25,-28.68 -22.38,0.17 -46.48,-13.52 -50.63,-35.68 -2.06,-10.98 -1.56,-24.45 2.17,-35.02 2.7,-7.67 9.21,-13.77 9.22,-21.94 -27.43,-5.93 -23.93,-23.82 -22.96,-45.12 0.32,-6.98 -0.35,-18.99 0.81,-29 15.78,-3.06 -13.04,-38.42 19.1,-34.14 0.56,-16.72 -1.36,-27.14 12.72,-38.94 23.23,-19.46 47.41,-22.97 76.56,-23.23 2.39,-23.11 1.36,-44.6 30.72,-50.11 34.54,-6.47 80.02,25.75 82.21,60.35 3.53,56.16 -11,124.22 -35.25,175.3 -16.95,35.73 -48.78,60.21 -74.19,89.5" />
      <path
         id="path366"
         style="fill:#bae8e1;fill-opacity:1;fill-rule:nonzero;stroke:none"
         d="m 6391.46,4034.08 c -0.84,10.37 -14.3,-3.17 -16.14,-6.37 -8.43,3.15 -19.42,1.32 -24.06,-6.48 -2.3,-3.86 -3.97,-9.02 -4.01,-13.52 -0.04,-3.28 1.57,-6.48 0.45,-9.57 -11.19,1.55 -12.34,-5.69 -14.92,-13.87 -0.85,-2.68 -2.75,-7.12 -3.7,-11.06 5.54,-3.34 -10.24,-12.71 2.49,-15.54 -2.1,-6.4 -4.27,-10.06 -0.57,-16.46 6.08,-10.57 14.72,-15.24 25.7,-19.37 -2.29,-9.06 -5.66,-17.03 4.68,-23.17 12.16,-7.22 33.79,-1.34 39.39,11.43 9.1,20.73 13.02,48.44 10.93,71.09 -1.48,15.84 -10.11,29.49 -15.66,44.06" />
      <path
         id="path368"
         style="fill:#f09f8d;fill-opacity:1;fill-rule:nonzero;stroke:none"
         d="m 6685.73,3911.94 c -3.8,85.26 -2.9,170.83 -2.91,256.34 -0.01,49.51 -18.8,79.8 -43.43,123.55 -20.29,36.06 -51.96,110.75 -90,91.49 0,-79.09 63.87,-123.07 54.93,-217.31 -19.14,57.07 -35.85,113.58 -61.92,169.81 -28.92,62.39 -99.31,170.57 -138.44,151.95 -26.21,-36.07 44.65,-106.9 65.21,-156.11 11.31,-27.08 30.3,-67.7 38.21,-98.28 8.11,-31.35 2.66,-43.15 6.69,-75.63 -0.76,30.38 -25.19,84.92 -38.6,113.46 -8.81,18.75 -23.23,49.14 -33.89,66.95 -28.38,47.46 -59.08,75.16 -102.15,112.86 -32.68,28.62 -46.21,-10.85 -28.84,-49.78 33.74,-75.66 56.36,-71.73 83.82,-121.12 11.92,-21.42 40.27,-117.72 41.2,-140.3 -14.98,52.97 -64.31,106.74 -100.08,147.97 -18.75,21.61 -65.59,73.83 -71.84,17.09 -5.16,-47.03 47.28,-87.95 69.59,-124.55 16.45,-26.98 27.69,-58.9 31.7,-93.56 3.94,-33.95 21.19,-105.46 15.18,-136.48 -9.05,36.45 -73.82,154.98 -115.82,130.08 -19.43,-26.31 -12.19,-48.69 3.3,-75.27 19.86,-34.1 43.17,-75.52 59.35,-115 39.05,-95.28 104.49,-282.21 134.15,-382.06 32.71,-1.47 62.87,-27.13 95.73,-27.13 21.93,0 91.99,28.36 111.27,41.48 15.07,10.25 -12.25,173.91 -6.57,194.64 19.85,72.27 19.03,96.04 24.16,194.91" />
      <path
         id="path370"
         style="fill:#dc877c;fill-opacity:1;fill-rule:nonzero;stroke:none"
         d="m 6333.68,4289.91 c 6.7,11.07 16.03,15.07 24.83,24.17 11.73,12.14 21.51,26.62 32.21,39.71 8.7,10.65 17.54,20.99 26.57,31.05 1.8,2 3.75,4.05 5.82,6.08 15.93,15.58 43.07,2.42 39.9,-19.63 -2.32,-16 -6.98,-31.78 -13.79,-47.2 -10.57,-23.93 -24.46,-40.62 -39.6,-61.57 -8.39,-11.62 -17.29,-25.77 -24.91,-32.95 -9.85,10.49 -46.58,54.51 -51.03,60.34" />
      <path
         id="path372"
         style="fill:#dc877c;fill-opacity:1;fill-rule:nonzero;stroke:none"
         d="m 6456.95,4309.58 c 13.31,23.68 24.13,56.8 40.47,87.99 9.1,17.38 21.53,48.63 41.5,56.82 30.03,12.32 25.63,-22.64 20.81,-41.39 -9.36,-36.35 -18.94,-71.79 -34.44,-106.03 -14.49,-32.03 -17.21,-43.87 -34.17,-70.8 0,0 -26.25,56.02 -34.17,73.41" />
      <path
         id="path374"
         style="fill:#dc877c;fill-opacity:1;fill-rule:nonzero;stroke:none"
         d="m 6563.12,4287.6 c 2.66,19.88 25.82,74.72 49.1,91.92 23.72,17.53 33.69,4.48 30.91,-15.23 -5.61,-39.94 -14.22,-52.82 -27.21,-82.77 -4.59,-10.58 -26.67,-55.76 -28.65,-63.8 -4.5,9.06 -24.15,69.88 -24.15,69.88" />
      <path
         id="path376"
         style="fill:#72cfc1;fill-opacity:1;fill-rule:nonzero;stroke:none"
         d="m 6426.37,4248.09 c -10.79,9.89 -43.55,22.05 -33.97,-5.88 -14.9,2.17 -41.63,-25.4 -23.99,-32.32 0.43,-13.09 -0.36,-26.63 17.92,-24.29 -0.19,-19.1 -2.52,-37.12 24.7,-37.9 -2.19,-17.71 23.45,-33.16 33.34,-16.21 2.54,4.36 -0.54,12.16 1.58,16.54 4.47,9.28 11.38,10.46 13.87,21.36 3.83,16.78 -6.43,25.04 -9.14,38.31 -3.8,18.66 2.23,20.41 -24.31,40.39" />
      <path
         id="path378"
         style="fill:#96dbd0;fill-opacity:1;fill-rule:nonzero;stroke:none"
         d="m 6414.22,4216.19 c -24.49,17.47 -35.13,-21.34 -5.94,-21.54 -3.62,-3.85 -7.22,-13.03 -4.87,-18.33 3.47,-7.84 30.66,-10.51 36.38,-5.3 6.47,5.89 6.51,26.17 -5.25,24.1 -1.09,6.81 2.34,18.47 -4.29,23.28 -5.14,3.74 -21.62,1.41 -23.63,-2.21" />
      <path
         id="path380"
         style="fill:#bae8e1;fill-opacity:1;fill-rule:nonzero;stroke:none"
         d="m 6516.16,4185.8 c 7.48,-2.69 7.86,-18.52 8.82,-24.92 2.8,-18.69 4.35,-32.08 -11.85,-43.71 -10.42,8.04 -8.4,27.35 -9.83,38.3 -1.15,8.92 -4.94,25.37 12.86,30.33" />
      <path
         id="path382"
         style="fill:#bae8e1;fill-opacity:1;fill-rule:nonzero;stroke:none"
         d="m 6463.26,4152.84 c 0,-5.29 -4.28,-9.56 -9.56,-9.56 -5.27,0 -9.56,4.27 -9.56,9.56 0,5.28 4.29,9.55 9.56,9.55 5.28,0 9.56,-4.27 9.56,-9.55" />
      <path
         id="path384"
         style="fill:#72cfc1;fill-opacity:1;fill-rule:nonzero;stroke:none"
         d="m 6547.92,4321.02 c 15.57,0.48 20.2,0.57 25.89,-12.14 2.05,-4.56 0.62,-9.81 2.92,-14.02 2.44,-4.49 9.52,-6.22 11.9,-11.78 3.18,-7.42 0.81,-19.21 1.13,-26.09 0.43,-9.38 7.69,-31.83 -3.48,-38.33 -15.19,-8.81 -22.59,30.38 -31.1,40.52 -5.01,5.96 -7.32,3.37 -10.37,11.6 -2.36,6.37 0.15,17.66 0.07,24.6 -0.08,7.74 -3.22,19.34 3.04,25.64" />
      <path
         id="path386"
         style="fill:#bae8e1;fill-opacity:1;fill-rule:nonzero;stroke:none"
         d="m 6651.24,4084 c 7.67,9.27 20.47,4.52 22.79,-7.14 7.13,8.1 10.35,1.91 13.33,-5.4 1.87,-4.55 -0.96,-10.31 0.35,-14.92 1.14,-3.95 4.95,-6.03 5.85,-9.4 2.36,-8.71 0.25,-15.25 -0.11,-23.25 -0.32,-7.23 4.76,-25.75 1.93,-35.79 -2.42,-8.57 -7.18,-15.66 -17.05,-12.63 -14.61,4.49 -7.49,20.06 -11.79,28.22 -3.53,6.72 -41.36,28.62 -12.43,38.39 -1.05,9.56 -29.13,22.63 -2.87,41.92" />
      <path
         id="path388"
         style="fill:#bae8e1;fill-opacity:1;fill-rule:nonzero;stroke:none"
         d="m 6289.63,3854.57 c -11.27,5.95 -13.91,-2.35 -18.23,-9.14 -1.26,-1.97 -3.12,-11.61 -3.44,-12.54 -0.78,-2.33 -4.87,-3.54 -5.71,-7.13 -2.97,-12.6 26.25,-53.03 39.7,-33.79 18.43,1.5 33.66,49.31 15.25,49 -1.3,13.97 -21.38,37.11 -27.57,13.6" />
      <path
         id="path390"
         style="fill:#bae8e1;fill-opacity:1;fill-rule:nonzero;stroke:none"
         d="m 6243.28,3895.97 c 0,-4.82 -3.9,-8.73 -8.73,-8.73 -4.82,0 -8.74,3.91 -8.74,8.73 0,4.83 3.92,8.74 8.74,8.74 4.83,0 8.73,-3.91 8.73,-8.74" />
      <path
         id="path392"
         style="fill:#bae8e1;fill-opacity:1;fill-rule:nonzero;stroke:none"
         d="m 6628.88,4111.64 c 0,-3.05 -2.47,-5.53 -5.53,-5.53 -3.06,0 -5.54,2.48 -5.54,5.53 0,3.05 2.48,5.53 5.54,5.53 3.06,0 5.53,-2.48 5.53,-5.53" />
      <path
         id="path394"
         style="fill:#bae8e1;fill-opacity:1;fill-rule:nonzero;stroke:none"
         d="m 6620.07,4039.18 c 0,-4.62 -3.74,-8.36 -8.36,-8.36 -4.62,0 -8.36,3.74 -8.36,8.36 0,4.61 3.74,8.36 8.36,8.36 4.62,0 8.36,-3.75 8.36,-8.36" />
      <path
         id="path396"
         style="fill:#bae8e1;fill-opacity:1;fill-rule:nonzero;stroke:none"
         d="m 6688.18,4356.59 c 0,-5.54 -4.48,-10.02 -10.02,-10.02 -5.52,0 -10.02,4.48 -10.02,10.02 0,5.53 4.5,10.02 10.02,10.02 5.54,0 10.02,-4.49 10.02,-10.02" />
      <path
         id="path398"
         style="fill:#96dbd0;fill-opacity:1;fill-rule:nonzero;stroke:none"
         d="m 6236.86,4258.52 c 0,-11.02 -8.94,-19.96 -19.96,-19.96 -11.02,0 -19.96,8.94 -19.96,19.96 0,11.03 8.94,19.96 19.96,19.96 11.02,0 19.96,-8.93 19.96,-19.96" />
      <path
         id="path400"
         style="fill:#bae8e1;fill-opacity:1;fill-rule:nonzero;stroke:none"
         d="m 6264.39,4360.71 c 0,-3.25 -2.64,-5.89 -5.89,-5.89 -3.26,0 -5.89,2.64 -5.89,5.89 0,3.26 2.63,5.9 5.89,5.9 3.25,0 5.89,-2.64 5.89,-5.9" />
      <path
         id="path402"
         style="fill:#96dbd0;fill-opacity:1;fill-rule:nonzero;stroke:none"
         d="m 6158.86,4013.85 c 0,-9.93 -8.05,-17.98 -17.98,-17.98 -9.92,0 -17.98,8.05 -17.98,17.98 0,9.93 8.06,17.98 17.98,17.98 9.93,0 17.98,-8.05 17.98,-17.98" />
    </g>
  </g>
</svg>
