<?xml version="1.0" encoding="UTF-8" standalone="no"?>
<svg
   xmlns:dc="http://purl.org/dc/elements/1.1/"
   xmlns:cc="http://creativecommons.org/ns#"
   xmlns:rdf="http://www.w3.org/1999/02/22-rdf-syntax-ns#"
   xmlns:svg="http://www.w3.org/2000/svg"
   xmlns="http://www.w3.org/2000/svg"
   xmlns:sodipodi="http://sodipodi.sourceforge.net/DTD/sodipodi-0.dtd"
   xmlns:inkscape="http://www.inkscape.org/namespaces/inkscape"
   width="37.91938mm"
   height="37.919376mm"
   viewBox="0 0 37.91938 37.919376"
   version="1.1"
   id="svg4158"
   inkscape:version="1.0.1 (3bc2e813f5, 2020-09-07)"
   sodipodi:docname="4.svg">
  <defs
     id="defs4152">
    <clipPath
       id="clipPath266"
       clipPathUnits="userSpaceOnUse">
      <path
         id="path264"
         d="m 4094.84,2571.84 c 0,-296.82 -240.62,-537.44 -537.44,-537.44 -296.81,0 -537.43,240.62 -537.43,537.44 0,296.82 240.62,537.44 537.43,537.44 296.82,0 537.44,-240.62 537.44,-537.44" />
    </clipPath>
  </defs>
  <sodipodi:namedview
     id="base"
     pagecolor="#ffffff"
     bordercolor="#666666"
     borderopacity="1.0"
     inkscape:pageopacity="0.0"
     inkscape:pageshadow="2"
     inkscape:zoom="1.979899"
     inkscape:cx="165.99731"
     inkscape:cy="191.08889"
     inkscape:document-units="mm"
     inkscape:current-layer="layer1"
     inkscape:document-rotation="0"
     showgrid="false"
     inkscape:window-width="1920"
     inkscape:window-height="1027"
     inkscape:window-x="-8"
     inkscape:window-y="-8"
     inkscape:window-maximized="1" />
  <metadata
     id="metadata4155">
    <rdf:RDF>
      <cc:Work
         rdf:about="">
        <dc:format>image/svg+xml</dc:format>
        <dc:type
           rdf:resource="http://purl.org/dc/dcmitype/StillImage" />
        <dc:title></dc:title>
      </cc:Work>
    </rdf:RDF>
  </metadata>
  <g
     inkscape:label="Layer 1"
     inkscape:groupmode="layer"
     id="layer1"
     transform="translate(-78.558169,-12.034359)">
    <path
       id="path250"
       style="fill:#f5fade;fill-opacity:1;fill-rule:nonzero;stroke:none;stroke-width:0.0352777"
       d="m 116.47755,30.994049 c 0,10.47115 -8.4889,18.959687 -18.959694,18.959687 -10.471148,0 -18.959687,-8.488537 -18.959687,-18.959687 0,-10.47115 8.488539,-18.95969 18.959687,-18.95969 10.470794,0 18.959694,8.48854 18.959694,18.95969" />
    <g
       clip-path="url(#clipPath266)"
       id="g262"
       transform="matrix(0.03527778,0,0,-0.03527778,-27.979315,121.72285)">
      <path
         id="path268"
         style="fill:#e18e87;fill-opacity:1;fill-rule:nonzero;stroke:none"
         d="m 3262.04,2367.68 c -5.1,85.19 -14.9,170.2 -23.79,255.25 -5.14,49.24 10.39,81.31 30.32,127.39 16.43,37.99 40.17,115.56 80,100.36 8.23,-78.65 -50.71,-129.05 -32,-221.84 13.09,58.75 23.83,116.7 43.9,175.33 22.27,65.06 81.01,179.99 121.87,165.54 29.82,-33.16 -33.29,-110.97 -48.6,-162.05 -8.43,-28.11 -23.1,-70.5 -27.78,-101.73 -4.8,-32.03 1.85,-43.2 1.22,-75.91 -2.41,30.29 16.22,87.07 26.58,116.86 6.81,19.57 17.99,51.29 26.73,70.11 23.29,50.15 50.95,80.91 89.85,122.89 29.53,31.86 47.09,-5.99 33.87,-46.52 -25.67,-78.75 -48.59,-77.2 -70.77,-129.18 -9.61,-22.55 -27.79,-121.28 -26.36,-143.83 9.38,54.23 52.85,112.85 84.14,157.58 16.39,23.45 57.54,80.26 69.66,24.47 10.04,-46.22 -37.86,-92.38 -56.24,-131.11 -13.55,-28.54 -21.41,-61.46 -21.79,-96.34 -0.38,-34.18 -10.1,-107.1 -0.89,-137.32 5.2,37.19 57.28,161.81 101.65,141.42 22.06,-24.14 17.19,-47.15 4.55,-75.2 -16.2,-35.99 -35.07,-79.61 -47.05,-120.55 -28.93,-98.83 -74.56,-291.56 -93.65,-393.95 -32.38,-4.87 -59.72,-33.53 -92.38,-36.95 -21.82,-2.28 -94.45,18.64 -115,29.67 -16.05,8.62 -5.91,174.25 -13.73,194.27 -27.25,69.81 -28.91,93.53 -44.31,191.34" />
      <path
         id="path270"
         style="fill:#72cfc1;fill-opacity:1;fill-rule:nonzero;stroke:none"
         d="m 3842.55,2706.53 c 14.09,-8.45 29.87,-13.12 31.92,-29.54 1.48,-11.86 -5.75,-23.67 -12.61,-32.79 15.47,-12.53 21.09,-19.32 18.67,-41.78 -1.11,-10.16 -2.91,-14.82 -1.44,-22.46 4.24,-21.95 25.29,-40.29 5.32,-62.45 -13.55,-15.04 -35.45,-15.44 -54.07,-16.45 23.29,-17.1 18.07,-50.48 -14.42,-49.97 -27.64,0.44 -46.38,9.06 -54.35,34.98 -12.24,39.84 17.49,53.76 35.73,85.43 -30.49,27.59 -47.72,55.7 -44.24,99.31 4.46,0.68 10.33,1.24 15.08,1.42 -17.72,10.59 -23.95,42.68 -2.06,56.13 19.68,12.09 51.88,1.91 76.47,-21.83" />
      <path
         id="path272"
         style="fill:#72cfc1;fill-opacity:1;fill-rule:nonzero;stroke:none"
         d="m 3523.51,2657.3 c -37.27,37.27 -73.05,-25.66 -74.95,-36.8 -27.52,0.2 -57.17,-16.63 -62.29,-43.9 -2.52,-13.5 -1.91,-30.08 2.67,-43.07 3.34,-9.44 11.34,-16.95 11.35,-27 -33.75,-7.3 -29.43,-29.3 -28.24,-55.5 0.39,-8.6 -0.44,-23.37 0.99,-35.68 19.42,-3.77 -16.04,-47.27 23.49,-42 0.69,-20.59 -1.66,-33.4 15.65,-47.91 28.58,-23.95 58.33,-28.26 94.19,-28.58 2.95,-28.43 1.67,-54.87 37.8,-61.64 42.49,-7.96 98.44,31.67 101.13,74.23 4.35,69.1 -13.53,152.83 -43.36,215.67 -20.86,43.95 -60,74.07 -91.27,110.1" />
      <path
         id="path274"
         style="fill:#96dbd0;fill-opacity:1;fill-rule:nonzero;stroke:none"
         d="m 3537.06,2583.8 c -28.48,28.27 -42.56,-9.12 -45.27,-13.84 -12.41,4.65 -28.6,1.94 -35.43,-9.54 -3.37,-5.69 -5.84,-13.29 -5.92,-19.92 -0.05,-4.82 2.32,-9.54 0.66,-14.08 -16.47,2.28 -18.15,-8.38 -21.95,-20.43 -1.24,-3.95 -4.06,-10.49 -5.46,-16.29 8.16,-4.91 -15.07,-18.72 3.68,-22.88 -3.1,-9.42 -6.29,-14.83 -0.86,-24.25 8.96,-15.56 21.7,-22.43 37.86,-28.52 -3.37,-13.34 -8.32,-25.09 6.89,-34.12 17.9,-10.63 49.76,-1.97 58.01,16.83 13.41,30.53 19.18,71.34 16.09,104.69 -2.16,23.33 14.38,53.71 6.21,75.18" />
      <path
         id="path276"
         style="fill:#bae8e1;fill-opacity:1;fill-rule:nonzero;stroke:none"
         d="m 3436.5,2650.05 c -19.53,10.33 -24.11,-4.07 -31.61,-15.84 -2.18,-3.42 -5.41,-20.13 -5.95,-21.75 -1.37,-4.04 -8.46,-6.14 -9.93,-12.37 -5.14,-21.84 45.54,-91.96 68.88,-58.59 31.94,2.6 58.35,85.51 26.43,84.96 -2.26,24.23 -37.07,64.37 -47.82,23.59" />
      <path
         id="path278"
         style="fill:#f09f8d;fill-opacity:1;fill-rule:nonzero;stroke:none"
         d="m 3846.64,2406.85 c -3.79,85.26 -2.89,170.83 -2.91,256.34 -0.01,49.51 -18.8,79.79 -43.42,123.55 -20.29,36.06 -51.97,110.74 -90,91.48 0,-79.08 63.86,-123.07 54.91,-217.31 -19.13,57.07 -35.84,113.59 -61.9,169.82 -28.93,62.38 -99.32,170.56 -138.45,151.95 -26.2,-36.08 44.66,-106.9 65.21,-156.11 11.31,-27.08 30.31,-67.71 38.22,-98.28 8.11,-31.36 2.65,-43.16 6.69,-75.63 -0.76,30.37 -25.2,84.91 -38.61,113.46 -8.81,18.75 -23.23,49.13 -33.88,66.95 -28.38,47.45 -59.09,75.16 -102.15,112.86 -32.68,28.62 -46.21,-10.86 -28.85,-49.79 33.74,-75.65 56.37,-71.73 83.83,-121.12 11.92,-21.42 40.27,-117.72 41.19,-140.3 -14.97,52.97 -64.31,106.74 -100.08,147.98 -18.74,21.6 -65.59,73.82 -71.83,17.08 -5.17,-47.03 47.27,-87.94 69.58,-124.55 16.45,-26.97 27.69,-58.9 31.7,-93.55 3.94,-33.96 21.19,-105.47 15.18,-136.48 -9.04,36.45 -73.81,154.98 -115.82,130.07 -19.42,-26.31 -12.19,-48.68 3.3,-75.27 19.86,-34.09 43.17,-75.52 59.35,-114.99 39.06,-95.28 104.5,-282.22 134.16,-382.07 32.71,-1.47 62.87,-27.12 95.71,-27.12 21.94,0 92.01,28.36 111.29,41.47 15.07,10.26 -12.26,173.92 -6.57,194.64 19.84,72.28 19.02,96.05 24.15,194.92" />
      <path
         id="path280"
         style="fill:#72cfc1;fill-opacity:1;fill-rule:nonzero;stroke:none"
         d="m 3587.29,2743 c -10.8,9.89 -43.55,22.04 -33.97,-5.89 -14.9,2.17 -41.63,-25.4 -23.99,-32.32 0.43,-13.09 -0.37,-26.63 17.91,-24.28 -0.18,-19.11 -2.51,-37.12 24.7,-37.91 -2.18,-17.7 23.46,-33.16 33.34,-16.2 2.55,4.36 -0.54,12.15 1.58,16.53 4.48,9.29 11.39,10.46 13.88,21.37 3.83,16.77 -6.44,25.03 -9.14,38.31 -3.8,18.65 2.22,20.4 -24.31,40.39" />
      <path
         id="path282"
         style="fill:#bae8e1;fill-opacity:1;fill-rule:nonzero;stroke:none"
         d="m 3575.13,2711.09 c -24.49,17.47 -35.13,-21.34 -5.93,-21.53 -3.62,-3.85 -7.22,-13.03 -4.88,-18.33 3.47,-7.85 30.67,-10.52 36.38,-5.31 6.48,5.9 6.52,26.17 -5.25,24.1 -1.09,6.81 2.35,18.47 -4.29,23.29 -5.14,3.74 -21.61,1.41 -23.63,-2.22" />
      <path
         id="path284"
         style="fill:#bae8e1;fill-opacity:1;fill-rule:nonzero;stroke:none"
         d="m 3677.08,2680.7 c 7.48,-2.69 7.86,-18.51 8.82,-24.91 2.8,-18.7 4.34,-32.09 -11.86,-43.72 -10.41,8.05 -8.41,27.35 -9.82,38.31 -1.16,8.91 -4.94,25.36 12.86,30.32" />
      <path
         id="path286"
         style="fill:#bae8e1;fill-opacity:1;fill-rule:nonzero;stroke:none"
         d="m 3624.17,2647.74 c 0,-5.28 -4.27,-9.56 -9.55,-9.56 -5.28,0 -9.56,4.28 -9.56,9.56 0,5.28 4.28,9.56 9.56,9.56 5.28,0 9.55,-4.28 9.55,-9.56" />
      <path
         id="path288"
         style="fill:#72cfc1;fill-opacity:1;fill-rule:nonzero;stroke:none"
         d="m 3708.84,2815.93 c 15.56,0.47 20.19,0.56 25.89,-12.15 2.04,-4.55 0.62,-9.81 2.91,-14.01 2.45,-4.5 9.53,-6.23 11.91,-11.79 3.17,-7.41 0.81,-19.21 1.12,-26.09 0.43,-9.37 7.7,-31.83 -3.48,-38.32 -15.19,-8.82 -22.59,30.38 -31.1,40.52 -5.01,5.96 -7.31,3.37 -10.36,11.6 -2.37,6.37 0.14,17.66 0.07,24.59 -0.09,7.75 -3.22,19.34 3.04,25.65" />
      <path
         id="path290"
         style="fill:#bae8e1;fill-opacity:1;fill-rule:nonzero;stroke:none"
         d="m 3812.16,2578.9 c 7.66,9.27 20.46,4.53 22.78,-7.13 7.14,8.1 10.35,1.9 13.34,-5.41 1.86,-4.54 -0.97,-10.31 0.35,-14.91 1.14,-3.95 4.93,-6.03 5.84,-9.4 2.37,-8.72 0.26,-15.25 -0.1,-23.25 -0.33,-7.24 4.76,-25.75 1.93,-35.8 -2.42,-8.57 -7.19,-15.66 -17.05,-12.62 -14.61,4.48 -7.49,20.05 -11.79,28.22 -3.53,6.72 -41.38,28.61 -12.43,38.39 -1.06,9.56 -29.14,22.62 -2.87,41.91" />
      <path
         id="path292"
         style="fill:#bae8e1;fill-opacity:1;fill-rule:nonzero;stroke:none"
         d="m 3402.26,2354.84 c -13.86,7.33 -17.11,-2.89 -22.43,-11.24 -1.55,-2.43 -3.84,-14.28 -4.22,-15.43 -0.97,-2.87 -6.01,-4.35 -7.05,-8.78 -3.64,-15.49 32.31,-65.23 48.87,-41.56 22.66,1.84 41.39,60.67 18.75,60.28 -1.6,17.18 -26.3,45.65 -33.92,16.73" />
      <path
         id="path294"
         style="fill:#bae8e1;fill-opacity:1;fill-rule:nonzero;stroke:none"
         d="m 3345.24,2405.77 c 0,-5.93 -4.81,-10.74 -10.74,-10.74 -5.94,0 -10.75,4.81 -10.75,10.74 0,5.94 4.81,10.75 10.75,10.75 5.93,0 10.74,-4.81 10.74,-10.75" />
      <path
         id="path296"
         style="fill:#bae8e1;fill-opacity:1;fill-rule:nonzero;stroke:none"
         d="m 3789.79,2606.54 c 0,-3.05 -2.48,-5.53 -5.53,-5.53 -3.05,0 -5.53,2.48 -5.53,5.53 0,3.05 2.48,5.53 5.53,5.53 3.05,0 5.53,-2.48 5.53,-5.53" />
      <path
         id="path298"
         style="fill:#bae8e1;fill-opacity:1;fill-rule:nonzero;stroke:none"
         d="m 3780.98,2534.08 c 0,-4.62 -3.74,-8.36 -8.35,-8.36 -4.62,0 -8.36,3.74 -8.36,8.36 0,4.62 3.74,8.36 8.36,8.36 4.61,0 8.35,-3.74 8.35,-8.36" />
      <path
         id="path300"
         style="fill:#bae8e1;fill-opacity:1;fill-rule:nonzero;stroke:none"
         d="m 3849.1,2851.49 c 0,-5.53 -4.48,-10.02 -10.02,-10.02 -5.53,0 -10.02,4.49 -10.02,10.02 0,5.54 4.49,10.02 10.02,10.02 5.54,0 10.02,-4.48 10.02,-10.02" />
      <path
         id="path302"
         style="fill:#bae8e1;fill-opacity:1;fill-rule:nonzero;stroke:none"
         d="m 3397.77,2753.43 c 0,-11.02 -8.93,-19.96 -19.96,-19.96 -11.02,0 -19.95,8.94 -19.95,19.96 0,11.02 8.93,19.95 19.95,19.95 11.03,0 19.96,-8.93 19.96,-19.95" />
      <path
         id="path304"
         style="fill:#bae8e1;fill-opacity:1;fill-rule:nonzero;stroke:none"
         d="m 3425.31,2855.62 c 0,-3.26 -2.64,-5.89 -5.9,-5.89 -3.25,0 -5.89,2.63 -5.89,5.89 0,3.25 2.64,5.89 5.89,5.89 3.26,0 5.9,-2.64 5.9,-5.89" />
      <path
         id="path306"
         style="fill:#bae8e1;fill-opacity:1;fill-rule:nonzero;stroke:none"
         d="m 3319.77,2508.75 c 0,-9.92 -8.05,-17.97 -17.97,-17.97 -9.93,0 -17.98,8.05 -17.98,17.97 0,9.93 8.05,17.98 17.98,17.98 9.92,0 17.97,-8.05 17.97,-17.98" />
      <path
         id="path308"
         style="fill:#126664;fill-opacity:1;fill-rule:nonzero;stroke:none"
         d="m 3656.55,2238.8 -5.29,258.39" />
      <path
         id="path310"
         style="fill:#126664;fill-opacity:1;fill-rule:nonzero;stroke:none"
         d="m 3662.77,2238.93 -5.28,258.39 -12.45,-0.25 5.29,-258.4" />
      <path
         id="path312"
         style="fill:#126664;fill-opacity:1;fill-rule:nonzero;stroke:none"
         d="m 3625.98,2488.84 23.14,46.15 26.46,-44.91" />
      <path
         id="path314"
         style="fill:#126664;fill-opacity:1;fill-rule:nonzero;stroke:none"
         d="m 3746.73,2534.99 5.28,-258.39" />
      <path
         id="path316"
         style="fill:#126664;fill-opacity:1;fill-rule:nonzero;stroke:none"
         d="m 3740.51,2534.86 5.28,-258.39 12.44,0.26 -5.28,258.39" />
      <path
         id="path318"
         style="fill:#126664;fill-opacity:1;fill-rule:nonzero;stroke:none"
         d="m 3777.29,2284.95 -23.13,-46.15 -26.46,44.91" />
    </g>
  </g>
</svg>
