<?xml version="1.0" encoding="UTF-8" standalone="no"?>
<svg
   xmlns:dc="http://purl.org/dc/elements/1.1/"
   xmlns:cc="http://creativecommons.org/ns#"
   xmlns:rdf="http://www.w3.org/1999/02/22-rdf-syntax-ns#"
   xmlns:svg="http://www.w3.org/2000/svg"
   xmlns="http://www.w3.org/2000/svg"
   xmlns:sodipodi="http://sodipodi.sourceforge.net/DTD/sodipodi-0.dtd"
   xmlns:inkscape="http://www.inkscape.org/namespaces/inkscape"
   width="37.919727mm"
   height="37.919369mm"
   viewBox="0 0 37.919727 37.919369"
   version="1.1"
   id="svg4292"
   inkscape:version="1.0.1 (3bc2e813f5, 2020-09-07)"
   sodipodi:docname="5.svg">
  <defs
     id="defs4286">
    <clipPath
       id="clipPath438"
       clipPathUnits="userSpaceOnUse">
      <path
         id="path436"
         d="m 5534.71,2571.84 c 0,-296.82 -240.63,-537.44 -537.44,-537.44 -296.82,0 -537.45,240.62 -537.45,537.44 0,296.82 240.63,537.44 537.45,537.44 296.81,0 537.44,-240.62 537.44,-537.44" />
    </clipPath>
  </defs>
  <sodipodi:namedview
     id="base"
     pagecolor="#ffffff"
     bordercolor="#666666"
     borderopacity="1.0"
     inkscape:pageopacity="0.0"
     inkscape:pageshadow="2"
     inkscape:zoom="2.8"
     inkscape:cx="-36.804462"
     inkscape:cy="216.40713"
     inkscape:document-units="mm"
     inkscape:current-layer="layer1"
     inkscape:document-rotation="0"
     showgrid="false"
     inkscape:window-width="1267"
     inkscape:window-height="1041"
     inkscape:window-x="208"
     inkscape:window-y="0"
     inkscape:window-maximized="0" />
  <metadata
     id="metadata4289">
    <rdf:RDF>
      <cc:Work
         rdf:about="">
        <dc:format>image/svg+xml</dc:format>
        <dc:type
           rdf:resource="http://purl.org/dc/dcmitype/StillImage" />
        <dc:title></dc:title>
      </cc:Work>
    </rdf:RDF>
  </metadata>
  <g
     inkscape:label="Layer 1"
     inkscape:groupmode="layer"
     id="layer1"
     transform="translate(43.906293,-176.07603)">
    <path
       id="path416"
       style="fill:#f5fade;fill-opacity:1;fill-rule:nonzero;stroke:none;stroke-width:0.0352777"
       d="m -5.9865641,195.03572 c 0,10.47115 -8.4888889,18.95968 -18.9596869,18.95968 -10.47115,0 -18.960042,-8.48853 -18.960042,-18.95968 0,-10.47115 8.488892,-18.95969 18.960042,-18.95969 10.470798,0 18.9596869,8.48854 18.9596869,18.95969" />
    <g
       clip-path="url(#clipPath438)"
       id="g434"
       transform="matrix(0.03527778,0,0,-0.03527778,-201.23885,285.76453)">
      <path
         id="path440"
         style="fill:#72cfc1;fill-opacity:1;fill-rule:nonzero;stroke:none"
         d="m 4846.31,2611.44 c -2.74,29.87 18.53,51.36 43.8,28.49 0.61,28.62 56.73,0.38 65.78,-9.69 24.43,35.57 87.9,-3.25 89.01,-39.6 1,-32.62 -30.34,-56.97 -59.63,-37.41 -18.64,-34.52 -74.54,-20.04 -81.67,16.32 -30.37,0.68 -62.45,-8.21 -57.29,41.89" />
      <path
         id="path442"
         style="fill:#f09f8d;fill-opacity:1;fill-rule:nonzero;stroke:none"
         d="m 4935.4,2077.84 c 47.69,25.3 100.08,127.48 104.69,145.19 6.53,25.14 27.54,44.95 37.77,68.62 7.01,16.22 13.66,29.69 23.59,44.64 8.23,12.39 19.81,31.12 32.52,38.85 -0.67,7.91 -18.91,30.7 -27.18,34.57 -10.22,4.78 -15.02,20.51 -23.33,13.49 -16.65,-14.05 -42.33,-52.24 -62.67,-60.08 -11,-4.24 -21.68,-7.99 -33.22,-9.35 -9.73,-1.14 -10.84,0.11 -15.66,-8.52 -8.01,-14.36 -10.26,-35.74 -12.98,-51.58 -4.55,-26.47 -3.29,-53.63 -3.27,-80.36 0.01,-17.66 1.26,-33.61 5.8,-50.58" />
      <path
         id="path444"
         style="fill:#e18e87;fill-opacity:1;fill-rule:nonzero;stroke:none"
         d="m 5328.9,2653 c -45.63,72.12 -87.35,146.84 -129.83,221.06 -24.59,42.97 -55.94,59.92 -99.04,85.67 -35.52,21.23 -100.1,70.32 -123.56,34.72 39.28,-68.65 116.56,-75.11 155.59,-161.35 -44.94,40.03 -87.52,80.79 -138.07,116.65 -56.08,39.78 -170.9,98.73 -195.62,63.13 -4.83,-44.33 91.85,-70.6 134.13,-103.11 23.26,-17.89 59.92,-43.72 81.97,-66.33 22.61,-23.19 23.73,-36.14 43.36,-62.32 -15.74,25.98 -64.03,61.19 -89.85,79.31 -16.95,11.9 -44.56,31.11 -62.66,41.28 -48.19,27.09 -88.6,35.9 -144.7,47.24 -42.58,8.61 -34.72,-32.38 -0.33,-57.54 66.87,-48.91 84.55,-34.27 132.92,-63.5 20.98,-12.68 93.41,-82.19 105.42,-101.32 -39.29,38.54 -108.83,60.71 -160.35,78.73 -27,9.45 -93.59,31.52 -70.83,-20.84 18.87,-43.39 84.71,-52.86 122.25,-73.55 27.67,-15.25 53.28,-37.37 73.97,-65.46 20.28,-27.52 70.76,-81.02 80.95,-110.93 -25.95,27.15 -141.03,97.86 -165.12,55.39 -3.8,-32.48 13.6,-48.31 40.24,-63.69 34.18,-19.74 74.98,-44.12 108.62,-70.34 81.22,-63.31 250.64,-268.3 325.97,-340.26 29.12,14.98 48.25,82.93 76.75,99.24 19.05,10.89 65.78,70.31 76.01,91.27 7.99,16.38 -97.01,144.86 -102.36,165.68 -18.68,72.58 -31.19,92.8 -75.83,181.17" />
      <path
         id="path446"
         style="fill:#72cfc1;fill-opacity:1;fill-rule:nonzero;stroke:none"
         d="m 4936.85,2815.98 c -14.28,3.23 -48.74,-2.49 -26.57,-21.98 -14,-5.51 -23.51,-42.72 -4.76,-39.96 6.87,-11.15 12.91,-23.3 27.61,-12.19 9.33,-16.67 16.25,-33.47 40.26,-20.63 6.89,-16.45 36.82,-17.14 36.99,2.49 0.04,5.04 -6.51,10.28 -6.85,15.14 -0.73,10.28 4.69,14.73 1.44,25.43 -5.01,16.46 -18.03,18.53 -26.96,28.71 -12.56,14.31 -8.21,18.82 -41.16,22.99" />
      <path
         id="path448"
         style="fill:#bae8e1;fill-opacity:1;fill-rule:nonzero;stroke:none"
         d="m 4942.15,2782.25 c -29.94,3.01 -19.89,-35.97 5.54,-21.63 -1.23,-5.15 0.2,-14.9 4.87,-18.34 6.9,-5.09 31.84,6.1 34.22,13.46 2.68,8.33 -7.36,25.95 -16.54,18.31 -4.32,5.37 -7.12,17.2 -15.28,18.08 -6.32,0.69 -19.46,-9.5 -19.41,-13.65" />
      <path
         id="path450"
         style="fill:#bae8e1;fill-opacity:1;fill-rule:nonzero;stroke:none"
         d="m 5045.72,2806.49 c 7.83,1.39 16.02,-12.16 20.03,-17.24 11.72,-14.83 19.7,-25.69 11.42,-43.83 -13.03,1.82 -20.88,19.57 -27.55,28.36 -5.43,7.17 -16.89,19.57 -3.9,32.71" />
      <path
         id="path452"
         style="fill:#bae8e1;fill-opacity:1;fill-rule:nonzero;stroke:none"
         d="m 5016.17,2751.62 c 2.63,-4.58 1.04,-10.42 -3.54,-13.05 -4.58,-2.62 -10.42,-1.03 -13.05,3.55 -2.62,4.58 -1.04,10.42 3.55,13.05 4.58,2.62 10.42,1.03 13.04,-3.55" />
      <path
         id="path454"
         style="fill:#72cfc1;fill-opacity:1;fill-rule:nonzero;stroke:none"
         d="m 5213.53,2785.22 c 2.05,11.85 15.5,14.09 23.32,5.12 2.16,10.57 8.03,6.79 14.25,1.93 3.87,-3.02 4.28,-9.43 7.72,-12.77 2.94,-2.87 7.27,-2.79 9.73,-5.26 6.38,-6.39 7.8,-13.11 11.46,-20.24 3.31,-6.44 16.92,-19.98 19.45,-30.11 2.15,-8.63 1.54,-17.15 -8.53,-19.42 -14.91,-3.36 -16.47,13.69 -24.24,18.64 -6.42,4.08 -50.13,4.3 -29.85,27.15 -5.68,7.78 -36.54,5.17 -23.31,34.96" />
      <path
         id="path456"
         style="fill:#bae8e1;fill-opacity:1;fill-rule:nonzero;stroke:none"
         d="m 5180.39,2798.1 c 1.51,-2.65 0.6,-6.03 -2.06,-7.55 -2.65,-1.51 -6.03,-0.59 -7.55,2.06 -1.51,2.65 -0.59,6.03 2.06,7.55 2.65,1.51 6.03,0.59 7.55,-2.06" />
      <path
         id="path458"
         style="fill:#bae8e1;fill-opacity:1;fill-rule:nonzero;stroke:none"
         d="m 5208.72,2730.83 c 2.3,-4.01 0.9,-9.11 -3.1,-11.41 -4.01,-2.29 -9.12,-0.89 -11.41,3.11 -2.29,4 -0.9,9.11 3.1,11.4 4.01,2.3 9.12,0.9 11.41,-3.1" />
      <path
         id="path460"
         style="fill:#f09f8d;fill-opacity:1;fill-rule:nonzero;stroke:none"
         d="m 4887.37,1981.92 c -3.08,25.54 35.88,-60.78 48.03,-39.82 19.13,32.98 17.46,183.76 32.36,218.19 7.7,17.8 16.29,31.28 18.48,49.77 3.97,33.63 -7.64,64.44 -2.86,97.03 5.87,39.98 7.79,81.48 16.88,120.83 5.36,23.18 8.82,94.29 43.11,102.76 4.17,17.85 0.02,26.54 -13.37,39.67 -11.4,11.17 -26.35,18.2 -40.89,8.97 -11.98,-7.6 -23.15,-21.84 -30.62,-33.43 -21.14,-32.79 -27.92,-47.92 -32.48,-73.54 -1.6,22.81 12.43,52.19 21.63,75.6 4.18,10.63 21.81,33.03 18.57,44.16 -3.92,13.49 -39.36,30.83 -54.18,7.74 -18.59,26.74 -32.2,20.96 -49.89,19.24 -12.63,-1.22 -14.2,-10.31 -25.37,-9.34 -2.38,0.21 -6.95,4.66 -9.39,5.48 -6.83,2.31 -15.4,10.51 -22.7,11.14 -23.91,2.08 -32.16,-10.74 -44.42,-28.15 -24.84,-35.31 -44.93,-72.6 -65.61,-110.12 -39.22,-71.18 2.97,-194.3 19.34,-264.46 4.17,-17.85 0.22,-97.66 1.16,-117.81 2.28,-49.07 0,0 -2.53,-48.73 -0.53,-10.18 -0.88,-21.55 -1.44,-31.04 -1.13,-19.37 7.92,-18.44 28.63,-24.2 28.07,-7.81 51.27,-6.24 79.48,-9.65 18.48,-2.23 32.52,-12.9 68.08,-10.29" />
      <path
         id="path462"
         style="fill:#e18e87;fill-opacity:1;fill-rule:nonzero;stroke:none"
         d="m 4891.88,2591.39 c -29.55,-18.62 -32.01,-64.71 -40.36,-95.76 7.31,19.95 24.32,40.93 32.92,60.46 4.95,11.25 -2.35,22.25 7.44,35.3" />
      <path
         id="path464"
         style="fill:#e18e87;fill-opacity:1;fill-rule:nonzero;stroke:none"
         d="m 4827.17,2595.54 c 7.6,6.95 -32.75,-69.33 -32.65,-70.79 23.19,14.41 20.14,44.61 32.65,70.79" />
      <path
         id="path466"
         style="fill:#72cfc1;fill-opacity:1;fill-rule:nonzero;stroke:none"
         d="m 5040.84,2526.46 c 2.06,20.02 -34.92,20.94 -31.84,1.89 -35.04,-7.02 -23.34,-30.89 -19.58,-53.72 1.64,-9.98 -4.69,-17.84 8.02,-23.98 5.32,-2.56 10.89,-4.69 13.41,3.89 18.23,-12.83 16.84,13.35 17.39,23.93 14.51,1.63 21.36,7.42 23.76,20.25 1.49,7.95 2.92,25.12 -11.16,27.74" />
    </g>
  </g>
</svg>
