<?xml version="1.0" encoding="UTF-8" standalone="no"?>
<svg
   xmlns:dc="http://purl.org/dc/elements/1.1/"
   xmlns:cc="http://creativecommons.org/ns#"
   xmlns:rdf="http://www.w3.org/1999/02/22-rdf-syntax-ns#"
   xmlns:svg="http://www.w3.org/2000/svg"
   xmlns="http://www.w3.org/2000/svg"
   xmlns:sodipodi="http://sodipodi.sourceforge.net/DTD/sodipodi-0.dtd"
   xmlns:inkscape="http://www.inkscape.org/namespaces/inkscape"
   width="37.91938mm"
   height="37.919369mm"
   viewBox="0 0 37.91938 37.919369"
   version="1.1"
   id="svg4418"
   inkscape:version="1.0.1 (3bc2e813f5, 2020-09-07)"
   sodipodi:docname="6.svg">
  <defs
     id="defs4412">
    <clipPath
       id="clipPath496"
       clipPathUnits="userSpaceOnUse">
      <path
         id="path494"
         d="m 6972.22,2571.84 c 0,-296.82 -240.63,-537.44 -537.45,-537.44 -296.81,0 -537.43,240.62 -537.43,537.44 0,296.82 240.62,537.44 537.43,537.44 296.82,0 537.45,-240.62 537.45,-537.44" />
    </clipPath>
  </defs>
  <sodipodi:namedview
     id="base"
     pagecolor="#ffffff"
     bordercolor="#666666"
     borderopacity="1.0"
     inkscape:pageopacity="0.0"
     inkscape:pageshadow="2"
     inkscape:zoom="0.35"
     inkscape:cx="-1348.3413"
     inkscape:cy="-119.76991"
     inkscape:document-units="mm"
     inkscape:current-layer="layer1"
     inkscape:document-rotation="0"
     showgrid="false"
     inkscape:window-width="1267"
     inkscape:window-height="1041"
     inkscape:window-x="234"
     inkscape:window-y="0"
     inkscape:window-maximized="0" />
  <metadata
     id="metadata4415">
    <rdf:RDF>
      <cc:Work
         rdf:about="">
        <dc:format>image/svg+xml</dc:format>
        <dc:type
           rdf:resource="http://purl.org/dc/dcmitype/StillImage" />
        <dc:title></dc:title>
      </cc:Work>
    </rdf:RDF>
  </metadata>
  <g
     inkscape:label="Layer 1"
     inkscape:groupmode="layer"
     id="layer1"
     transform="translate(-462.58198,-179.85579)">
    <path
       id="path474"
       style="fill:#f5fade;fill-opacity:1;fill-rule:nonzero;stroke:none;stroke-width:0.0352777"
       d="m 500.50136,198.81548 c 0,10.47115 -8.4889,18.95968 -18.95969,18.95968 -10.47115,0 -18.95969,-8.48853 -18.95969,-18.95968 0,-10.47115 8.48854,-18.95969 18.95969,-18.95969 10.47079,0 18.95969,8.48854 18.95969,18.95969" />
    <g
       clip-path="url(#clipPath496)"
       id="g492"
       transform="matrix(0.03527778,0,0,-0.03527778,254.53692,289.54429)">
      <path
         id="path498"
         style="fill:#dc877c;fill-opacity:1;fill-rule:nonzero;stroke:none"
         d="m 5973.24,2506.04 c -2.78,5.21 -4.4,11.02 -4.7,16.9 -3.14,61.98 51.67,127.02 87.85,168.41 43.35,49.59 80.23,103.41 126.18,151.02 12.25,12.71 32.6,36.84 52.68,45.31 18.85,7.94 37.66,-11.73 28.67,-30.09 -20.92,-42.67 -61.69,-92.58 -57.37,-112.04 50.33,55.86 70.73,59.58 137.91,133.46 18.15,19.94 86.27,103.2 115.12,108.04 43.9,7.36 15,-36.85 3.19,-59.31 -26.85,-51.07 -87.1,-115.47 -121.85,-161.89 61.33,63.37 121.96,130.73 183.16,194.23 17.29,17.94 60.98,60.92 64.82,18.89 1.88,-20.61 -38.15,-68.55 -58.88,-91.43 -43.54,-48.02 -92.42,-105.23 -124.72,-152.07 23.1,23.96 99.11,92.91 140.61,140.59 8.26,9.5 54.83,60.36 72.95,48.94 38.35,-24.18 -145.78,-213.02 -155.92,-228.5 32.33,22.09 91.73,104.37 131,134.88 23.19,18.01 44.79,16.6 34.21,-20.31 -11.95,-41.69 -42.84,-71.14 -68.67,-106.6 -37.92,-52.06 -94,-104.63 -135.18,-153.19 -34.88,-41.12 -71.86,-80.3 -109.95,-118.47 -26.29,-26.34 -49.86,-58.91 -81.92,-76.55 -61.42,-33.8 -108.85,-23.82 -160.64,22 -47.92,42.4 -69.03,72.67 -98.55,127.78" />
      <path
         id="path500"
         style="fill:#d68174;fill-opacity:1;fill-rule:nonzero;stroke:none"
         d="m 6206.79,2737.31 c 4.89,-10.19 7.1,-23.01 7.09,-36.53 0.02,-23.21 -6.48,-48.43 -15.37,-65.63 -8.34,-16.2 -22.56,-36.91 -39.49,-54.31 -16.91,-17.45 -36.6,-31.47 -55.25,-35.04 -2.35,-0.45 -3.89,-2.73 -3.43,-5.09 0.46,-2.35 2.73,-3.89 5.09,-3.43 21.55,4.25 42.18,19.41 59.82,37.51 17.62,18.13 32.18,39.33 40.98,56.39 9.59,18.68 16.3,44.79 16.33,69.6 -0.01,14.44 -2.29,28.46 -7.94,40.28 -1.04,2.16 -3.63,3.07 -5.79,2.04 -2.16,-1.04 -3.08,-3.63 -2.04,-5.79" />
      <path
         id="path502"
         style="fill:#d68174;fill-opacity:1;fill-rule:nonzero;stroke:none"
         d="m 6298.94,2774.7 c 5.89,-6.13 13.9,-10.41 21.92,-14.35 8.03,-3.9 16.13,-7.44 22.02,-11.32 15.96,-10.44 29.9,-22.92 44.57,-35.86 25.31,-22.3 50.09,-44.94 74.39,-68.36 1.73,-1.66 4.48,-1.61 6.14,0.12 1.66,1.72 1.61,4.47 -0.11,6.14 -24.42,23.51 -49.3,46.24 -74.68,68.62 -14.64,12.89 -28.88,25.69 -45.55,36.6 -6.85,4.48 -15.17,8.05 -22.97,11.86 -7.79,3.79 -15,7.85 -19.45,12.55 -1.66,1.73 -4.4,1.79 -6.14,0.14 -1.73,-1.66 -1.79,-4.4 -0.14,-6.14" />
      <path
         id="path504"
         style="fill:#dc877c;fill-opacity:1;fill-rule:nonzero;stroke:none"
         d="m 5781.22,2294.63 c 47.85,49.37 99.4,94.64 147.16,144.3 24.24,25.21 49.71,62.33 79.68,80.83 38.83,-32.97 70.48,-75.66 107.38,-111.23 7.67,-7.39 15.24,-14.92 23.11,-22.06 -38.25,-70.5 -92.84,-135.42 -143.49,-197.44 -7.65,-9.36 -19.59,-24.52 -29.68,-30.63 -8.15,-4.95 -8.92,-4.11 -19.36,-0.85 -27.45,8.55 -57.92,21.38 -80.25,39.8 -31.8,26.25 -60.76,56.26 -84.55,97.28" />
      <path
         id="path506"
         style="fill:#72cfc1;fill-opacity:1;fill-rule:nonzero;stroke:none"
         d="m 6422.13,2782.66 c -3.44,15.6 -24.59,31.32 -34.98,10.04 -6.45,8.4 -23.37,14.74 -28.2,1.02 -7.34,1.58 -15.73,0.59 -14.67,-8.5 -23.5,7.9 -66.57,-4.38 -71.97,-52.99 -0.55,-4.94 4.28,-11.51 3.15,-16.16 -1.17,-4.8 -9.18,-10.92 -11.82,-16.09 -7.12,-13.99 -6.52,-33.2 7.1,-43.36 -12.95,-9.12 -17.41,-26.64 -3.38,-36.76 -9.07,-13.64 -20.1,-20.7 -25.05,-37 -5.53,-18.25 -7.69,-33.14 5.21,-49.4 6.86,-8.66 26.69,-17.31 26.69,-17.31 0,0 4.98,-22.19 15.4,-30.37 15.73,-12.35 46.71,-9.03 63.41,-0.27 5.31,2.79 10.81,12.33 14.87,14.12 4.95,2.18 14.41,0.42 19.84,0.85 32.22,2.53 49.3,4.41 67.45,31.04 11.94,17.52 19.02,25.35 13.85,45.61 39.55,15.61 69.09,44.72 57.35,88.37 -1.18,4.39 -1.71,9.89 -4.46,13.76 -4.94,7 -16.23,7.64 -20.57,13.24 -5.82,7.52 -3.04,15.42 -5.37,26.89 -4.04,19.85 -17.17,28.17 -29.26,40.44 -10.75,10.91 -10.02,13.39 -44.59,22.83" />
      <path
         id="path508"
         style="fill:#96dbd0;fill-opacity:1;fill-rule:nonzero;stroke:none"
         d="m 6384.14,2716.46 c -11.24,3.06 -40.88,-16.16 -29.52,-27.61 -9.38,-8.22 -19.5,-19.43 -21.38,-30.94 -1.4,-8.6 2.79,-21.07 12.85,-21.1 -7.66,-15.79 -7.86,-23.82 0.66,-35.71 7.3,-10.2 14.31,-14.98 29.22,-11.7 3.34,-11.9 18.65,-17.29 32.19,-12.1 7.6,2.91 16.99,10.26 22.9,16.44 4.56,4.76 5.58,8.62 11.05,10.74 5.87,2.27 10.99,-0.72 17.52,2.52 8.05,3.98 13.95,12.18 17.92,19.54 5.76,10.69 9.02,32.62 -2.6,37.57 8.69,15.17 20.96,29.82 16.09,44.92 -3.27,10.1 -12.5,23.26 -22.68,26.77 -6.38,2.2 -4.4,-1.33 -9.94,3.53 -12.21,10.69 -17.96,20.89 -39.42,17.82 -12.74,-1.82 -23.5,-11.61 -33.32,-19.93 -9.48,-8.05 -9.66,-11.44 -1.54,-20.76" />
      <path
         id="path510"
         style="fill:#f09f8d;fill-opacity:1;fill-rule:nonzero;stroke:none"
         d="m 6784.69,2059.82 c -5.03,-3.08 -10.73,-5.04 -16.59,-5.7 -61.68,-6.81 -129.86,44.04 -173.32,77.71 -52.08,40.33 -108,73.95 -158.26,116.99 -13.39,11.48 -38.7,30.36 -48.35,49.91 -9.04,18.34 9.48,38.28 28.33,30.39 43.84,-18.35 96.09,-56.08 115.26,-50.6 -58.75,46.92 -63.67,67.06 -141.41,129.74 -20.98,16.93 -108.13,79.99 -114.68,108.5 -9.96,43.38 35.89,17.16 59.01,6.71 52.58,-23.78 120.44,-80.1 168.84,-112.03 -66.9,57.46 -137.74,113.98 -204.76,171.3 -18.94,16.2 -64.43,57.26 -22.71,63.59 20.46,3.1 70.7,-34.01 94.77,-53.35 50.53,-40.6 110.53,-86.01 159.2,-115.47 -25.28,21.63 -98.62,93.42 -148.69,132.01 -9.97,7.69 -63.5,51.16 -53.18,69.92 21.86,39.72 221.3,-132.88 237.35,-142.09 -23.96,30.97 -109.63,85.37 -142.41,122.77 -19.36,22.08 -19.23,43.73 18.24,35.36 42.32,-9.46 73.56,-38.55 110.5,-62.22 54.21,-34.77 110.02,-87.64 160.93,-125.86 43.12,-32.37 84.44,-66.97 124.79,-102.73 27.85,-24.68 61.77,-46.26 81.28,-77.22 37.38,-59.32 30.23,-107.24 -12.43,-161.67 -39.49,-50.35 -68.45,-73.21 -121.71,-105.96" />
      <path
         id="path512"
         style="fill:#96dbd0;fill-opacity:1;fill-rule:nonzero;stroke:none"
         d="m 6230.08,2608.22 c -9.06,-2.24 -18.67,-23.86 -5.13,-26.41 -1.91,-8.07 -2.76,-18.14 2.02,-25.43 3.58,-5.46 12.89,-11.14 19.59,-7.58 3.19,-11.82 7.27,-16.51 19.15,-20.33 10.2,-3.27 17.37,-3.52 25.54,3.67 8.46,-5.66 21.44,-3.31 27.71,4.51 3.52,4.38 5.9,11.95 6.59,17.62 0.53,4.36 -0.82,6.95 1.71,10.11 2.7,3.41 7.66,3.51 10.3,7.7 3.26,5.16 2.88,11.98 1.66,17.63 -1.78,8.21 -11.1,22 -21.42,20.71 -2.17,11.84 -1.72,24.64 -12.86,31.6 -7.46,4.65 -20.49,8.94 -29.08,7.34 -5.39,-1.01 -2.23,-2.33 -8.46,-1.51 -13.71,1.81 -22.87,5.64 -35.51,-3.78 -7.5,-5.59 -9.52,-15.06 -11.67,-23.34 -2.08,-8.02 -0.42,-10.04 9.86,-12.51" />
      <path
         id="path514"
         style="fill:#f09f8d;fill-opacity:1;fill-rule:nonzero;stroke:none"
         d="m 7007.13,1880.68 c -52.13,44.85 -100.37,93.62 -152.78,138.34 -26.61,22.71 -65.18,45.92 -85.41,74.75 30.6,40.72 71.33,74.84 104.65,113.79 6.92,8.08 13.99,16.1 20.65,24.38 72.64,-34 140.68,-84.65 205.6,-131.52 9.81,-7.08 25.65,-18.11 32.35,-27.8 5.42,-7.85 4.63,-8.66 2,-19.29 -6.91,-27.9 -17.91,-59.09 -34.98,-82.47 -24.32,-33.29 -52.55,-63.99 -92.08,-90.18" />
      <path
         id="path516"
         style="fill:#72cfc1;fill-opacity:1;fill-rule:nonzero;stroke:none"
         d="m 6393.08,2248.93 c -7.7,-1.91 -15.86,-20.28 -4.36,-22.44 -1.63,-6.85 -2.34,-15.41 1.72,-21.61 3.04,-4.63 10.96,-9.46 16.64,-6.42 2.71,-10.05 6.17,-14.04 16.27,-17.28 8.66,-2.78 14.75,-3 21.7,3.12 7.18,-4.81 18.2,-2.82 23.54,3.82 2.99,3.73 5.01,10.16 5.6,14.98 0.45,3.7 -0.7,5.9 1.44,8.59 2.3,2.89 6.52,2.98 8.76,6.53 2.77,4.39 2.45,10.19 1.41,14.99 -1.51,6.97 -9.43,18.68 -18.19,17.59 -1.86,10.05 -1.47,20.93 -10.93,26.84 -6.34,3.95 -17.41,7.6 -24.71,6.24 -4.58,-0.86 -1.89,-1.99 -7.18,-1.28 -11.65,1.53 -19.44,4.78 -30.17,-3.22 -6.37,-4.74 -8.09,-12.79 -9.91,-19.83 -1.77,-6.81 -0.36,-8.51 8.37,-10.62" />
      <path
         id="path518"
         style="fill:#bae8e1;fill-opacity:1;fill-rule:nonzero;stroke:none"
         d="m 6351.89,2726 c 0,-7.28 -5.89,-13.18 -13.18,-13.18 -7.27,0 -13.17,5.9 -13.17,13.18 0,7.28 5.9,13.18 13.17,13.18 7.29,0 13.18,-5.9 13.18,-13.18" />
      <path
         id="path520"
         style="fill:#bae8e1;fill-opacity:1;fill-rule:nonzero;stroke:none"
         d="m 6266.63,2711.66 c 0,-7.92 -6.42,-14.34 -14.34,-14.34 -7.91,0 -14.34,6.42 -14.34,14.34 0,7.92 6.43,14.34 14.34,14.34 7.92,0 14.34,-6.42 14.34,-14.34" />
      <path
         id="path522"
         style="fill:#bae8e1;fill-opacity:1;fill-rule:nonzero;stroke:none"
         d="m 6329.12,2658.34 c 0,-4.51 -3.66,-8.17 -8.17,-8.17 -4.52,0 -8.18,3.66 -8.18,8.17 0,4.52 3.66,8.18 8.18,8.18 4.51,0 8.17,-3.66 8.17,-8.18" />
      <path
         id="path524"
         style="fill:#bae8e1;fill-opacity:1;fill-rule:nonzero;stroke:none"
         d="m 6292.06,2581.77 c 0,-3.56 -2.89,-6.44 -6.45,-6.44 -3.56,0 -6.45,2.88 -6.45,6.44 0,3.57 2.89,6.45 6.45,6.45 3.56,0 6.45,-2.88 6.45,-6.45" />
      <path
         id="path526"
         style="fill:#bae8e1;fill-opacity:1;fill-rule:nonzero;stroke:none"
         d="m 6452.74,2611.91 c 0,-4.96 -4.02,-8.98 -8.98,-8.98 -4.96,0 -8.98,4.02 -8.98,8.98 0,4.96 4.02,8.99 8.98,8.99 4.96,0 8.98,-4.03 8.98,-8.99" />
      <path
         id="path528"
         style="fill:#bae8e1;fill-opacity:1;fill-rule:nonzero;stroke:none"
         d="m 6511.79,2670.96 c 0,-6.97 -5.66,-12.62 -12.62,-12.62 -6.97,0 -12.62,5.65 -12.62,12.62 0,6.96 5.65,12.61 12.62,12.61 6.96,0 12.62,-5.65 12.62,-12.61" />
      <path
         id="path530"
         style="fill:#bae8e1;fill-opacity:1;fill-rule:nonzero;stroke:none"
         d="m 6434.78,2238.07 c 0,-6.14 -4.98,-11.11 -11.11,-11.11 -6.14,0 -11.11,4.97 -11.11,11.11 0,6.14 4.97,11.11 11.11,11.11 6.13,0 11.11,-4.97 11.11,-11.11" />
      <path
         id="path532"
         style="fill:#bae8e1;fill-opacity:1;fill-rule:nonzero;stroke:none"
         d="m 6491.04,2185.36 c 0,-10.57 -8.58,-19.14 -19.16,-19.14 -10.56,0 -19.14,8.57 -19.14,19.14 0,10.58 8.58,19.15 19.14,19.15 10.58,0 19.16,-8.57 19.16,-19.15" />
      <path
         id="path534"
         style="fill:#126664;fill-opacity:1;fill-rule:nonzero;stroke:none"
         d="m 6644.2,2414.45 c 20.98,10.52 45.71,13.67 70.02,6.8 51.66,-14.6 81.82,-68.5 67.23,-120.16 -14.6,-51.67 -68.5,-81.82 -120.16,-67.22 -46.12,13.02 -75.01,57.38 -70.31,103.51 l -7.28,2.05 c -5.75,-50.13 25.44,-98.62 75.55,-112.77 55.63,-15.72 113.68,16.76 129.4,72.39 15.72,55.64 -16.77,113.68 -72.4,129.41 -23.86,6.74 -48.13,4.56 -69.35,-4.46 l -2.7,-9.55" />
      <path
         id="path536"
         style="fill:#126664;fill-opacity:1;fill-rule:nonzero;stroke:none"
         d="m 6644.2,2414.45 2.06,-4.1 c 12.8,6.42 27.07,9.96 41.73,9.96 8.26,0 16.64,-1.12 24.98,-3.48 40.82,-11.52 67.56,-48.85 67.56,-89.31 0,-8.32 -1.13,-16.77 -3.5,-25.18 -11.53,-40.82 -48.85,-67.56 -89.3,-67.56 -8.33,0 -16.79,1.13 -25.19,3.5 -40.81,11.52 -67.47,48.82 -67.47,89.29 0,3.1 0.15,6.22 0.47,9.34 l 0.4,3.84 -16.19,4.57 -0.61,-5.36 c -0.48,-4.16 -0.71,-8.3 -0.71,-12.42 0,-47.73 31.41,-91.68 79.57,-105.3 9.9,-2.8 19.89,-4.13 29.72,-4.13 47.76,0 91.72,31.53 105.35,79.69 2.8,9.9 4.13,19.89 4.13,29.71 0,47.77 -31.53,91.74 -79.7,105.36 -9.86,2.79 -19.81,4.12 -29.59,4.12 -14.91,0 -29.44,-3.08 -42.8,-8.76 l -2.02,-0.86 -6.15,-21.69 9.32,4.67 -2.06,4.1 4.42,-1.25 2.7,9.55 -4.42,1.25 1.8,-4.22 c 12.25,5.21 25.57,8.03 39.21,8.03 8.95,0 18.05,-1.22 27.09,-3.77 44.12,-12.46 73.02,-52.8 73.02,-96.53 0,-8.99 -1.22,-18.13 -3.79,-27.21 -12.45,-44.11 -52.79,-73.01 -96.51,-73.01 -9,0 -18.14,1.22 -27.22,3.79 -44.1,12.44 -72.89,52.74 -72.89,96.46 0,3.77 0.21,7.56 0.65,11.37 l -4.56,0.52 -1.24,-4.41 7.27,-2.06 1.25,4.42 -4.57,0.47 c -0.35,-3.44 -0.52,-6.87 -0.52,-10.28 -0.01,-44.48 29.28,-85.43 74.15,-98.12 9.22,-2.61 18.53,-3.85 27.69,-3.85 44.49,0 85.44,29.37 98.13,74.25 2.61,9.22 3.85,18.52 3.85,27.67 0,44.49 -29.37,85.45 -74.24,98.15 -9.17,2.59 -18.39,3.82 -27.48,3.82 -16.14,0 -31.81,-3.89 -45.85,-10.93 l 2.06,-4.11 4.42,-1.25 -4.42,1.25" />
      <path
         id="path538"
         style="fill:#126664;fill-opacity:1;fill-rule:nonzero;stroke:none"
         d="m 6648.7,2447.07 18.05,-47.63 -51.45,4.23 z" />
    </g>
  </g>
</svg>
