<?xml version="1.0" encoding="UTF-8" standalone="no"?>
<svg
   xmlns:dc="http://purl.org/dc/elements/1.1/"
   xmlns:cc="http://creativecommons.org/ns#"
   xmlns:rdf="http://www.w3.org/1999/02/22-rdf-syntax-ns#"
   xmlns:svg="http://www.w3.org/2000/svg"
   xmlns="http://www.w3.org/2000/svg"
   xmlns:sodipodi="http://sodipodi.sourceforge.net/DTD/sodipodi-0.dtd"
   xmlns:inkscape="http://www.inkscape.org/namespaces/inkscape"
   width="37.919029mm"
   height="37.919731mm"
   viewBox="0 0 37.919029 37.919731"
   version="1.1"
   id="svg4538"
   inkscape:version="1.0.1 (3bc2e813f5, 2020-09-07)"
   sodipodi:docname="7.svg">
  <defs
     id="defs4532">
    <clipPath
       id="clipPath212"
       clipPathUnits="userSpaceOnUse">
      <path
         id="path210"
         d="m 4065.73,1165.2 c 0,-296.821 -240.61,-537.45 -537.44,-537.45 -296.81,0 -537.43,240.629 -537.43,537.45 0,296.81 240.62,537.44 537.43,537.44 296.83,0 537.44,-240.63 537.44,-537.44" />
    </clipPath>
  </defs>
  <sodipodi:namedview
     id="base"
     pagecolor="#ffffff"
     bordercolor="#666666"
     borderopacity="1.0"
     inkscape:pageopacity="0.0"
     inkscape:pageshadow="2"
     inkscape:zoom="0.35"
     inkscape:cx="223.08658"
     inkscape:cy="-199.76925"
     inkscape:document-units="mm"
     inkscape:current-layer="layer1"
     inkscape:document-rotation="0"
     showgrid="false"
     inkscape:window-width="1267"
     inkscape:window-height="1041"
     inkscape:window-x="26"
     inkscape:window-y="0"
     inkscape:window-maximized="0" />
  <metadata
     id="metadata4535">
    <rdf:RDF>
      <cc:Work
         rdf:about="">
        <dc:format>image/svg+xml</dc:format>
        <dc:type
           rdf:resource="http://purl.org/dc/dcmitype/StillImage" />
        <dc:title></dc:title>
      </cc:Work>
    </rdf:RDF>
  </metadata>
  <g
     inkscape:label="Layer 1"
     inkscape:groupmode="layer"
     id="layer1"
     transform="translate(-46.808343,-201.02228)">
    <g
       clip-path="url(#clipPath212)"
       id="g208"
       transform="matrix(0.03527778,0,0,-0.03527778,-58.702558,261.08764)">
      <path
         id="path214"
         style="fill:#f5fade;fill-opacity:1;fill-rule:nonzero;stroke:none"
         d="m 4065.73,1165.2 c 0,-296.821 -240.61,-537.45 -537.43,-537.45 -296.82,0 -537.44,240.629 -537.44,537.45 0,296.81 240.62,537.44 537.44,537.44 296.82,0 537.43,-240.63 537.43,-537.44" />
      <path
         id="path216"
         style="fill:#dc877c;fill-opacity:1;fill-rule:nonzero;stroke:none"
         d="m 3882.05,1141.4 c -0.56,5.35 -2.29,10.57 -5.08,15.18 -29.32,48.47 -104.02,69.63 -152.55,82.44 -58.14,15.34 -113.55,37.18 -172.63,49.7 -15.76,3.34 -43.49,11.18 -63.01,7.32 -18.31,-3.63 -22.49,-28.12 -6.29,-37.41 37.63,-21.57 93.98,-38.47 100.66,-55.4 -66.62,16.51 -83.94,8.9 -172.53,30.41 -23.91,5.81 -118,33.94 -142.29,22.85 -36.96,-16.87 7.49,-35.53 27.91,-46.48 46.42,-24.89 124.91,-42.79 174.92,-60.13 -78.78,16.58 -159.08,36.52 -237.82,53.24 -22.25,4.73 -77.27,14.9 -58.68,-18.85 9.11,-16.55 63.89,-32.35 91.27,-39.05 57.48,-14.06 123.69,-32.32 172.07,-51.23 -29.71,6.31 -122.45,19.59 -178.21,34.44 -11.11,2.96 -72.33,17.61 -80.2,-0.3 -16.63,-37.89 219.16,-86.56 234.75,-93.07 -35.75,0.16 -122.73,32.02 -168.03,35.02 -26.75,1.76 -42.36,-10.35 -15.49,-32.85 30.35,-25.42 68.77,-31.91 106.44,-45.511 55.29,-19.989 124.58,-31.071 180.55,-46.731 47.4,-13.269 95.41,-23.988 143.72,-33.379 33.35,-6.468 67.83,-19.07 101.1,-16.007 63.72,5.847 94.49,37.628 110.23,98.769 14.56,56.569 15.04,90.249 9.19,147.029" />
      <path
         id="path218"
         style="fill:#d68174;fill-opacity:1;fill-rule:nonzero;stroke:none"
         d="m 3579.35,1195.72 c 2.42,-16.07 11.55,-32.04 23.22,-45.91 11.71,-13.87 26,-25.62 39.31,-32.91 22.65,-12.35 59.35,-25.22 91.81,-25.26 11.6,0 22.7,1.66 32.42,5.79 2.01,0.85 2.95,3.18 2.1,5.19 -0.86,2.02 -3.19,2.96 -5.2,2.1 -8.4,-3.58 -18.47,-5.16 -29.32,-5.16 -30.36,-0.05 -66.51,12.49 -88.01,24.3 -12.27,6.69 -26,17.94 -37.05,31.05 -11.07,13.11 -19.41,28.11 -21.44,41.97 -0.32,2.17 -2.34,3.66 -4.5,3.34 -2.17,-0.32 -3.66,-2.34 -3.34,-4.5" />
      <path
         id="path220"
         style="fill:#d68174;fill-opacity:1;fill-rule:nonzero;stroke:none"
         d="m 3490.57,1179.36 c -0.97,-5.83 -4.34,-12.58 -8.3,-19.43 -3.95,-6.87 -8.41,-13.82 -11.31,-20.71 -7.01,-16.77 -11.25,-33.74 -15.73,-50.97 -7.75,-29.9 -14.96,-59.81 -21.39,-90.078 -0.45,-2.141 0.92,-4.25 3.06,-4.703 2.14,-0.457 4.24,0.91 4.7,3.051 6.4,30.14 13.57,59.93 21.3,89.74 4.49,17.28 8.65,33.85 15.37,49.9 2.48,5.95 6.8,12.76 10.86,19.82 4.06,7.08 7.93,14.41 9.25,22.06 0.36,2.16 -1.09,4.2 -3.24,4.57 -2.16,0.36 -4.21,-1.09 -4.57,-3.25" />
      <path
         id="path222"
         style="fill:#dc877c;fill-opacity:1;fill-rule:nonzero;stroke:none"
         d="m 4135.36,1079.69 c -61.43,12.87 -123.55,20.75 -185.07,33.88 -31.22,6.67 -69.46,21.73 -101.58,20.39 -12.52,-44.79 -14.62,-93.25 -24.33,-139.019 -2.03,-9.5 -3.91,-19.07 -6.22,-28.492 64.98,-33.758 139.46,-54.949 209.47,-75.949 10.57,-3.18 27.35,-8.531 38.11,-8 8.69,0.43 8.85,1.461 15.08,9.262 16.38,20.5 32.87,45.789 40.33,71.129 10.63,36.109 17.19,73.619 14.21,116.799" />
      <path
         id="path224"
         style="fill:#3bbdb7;fill-opacity:1;fill-rule:nonzero;stroke:none"
         d="m 3528.22,1078.79 c 0,-30.34 -24.59,-54.93 -54.93,-54.93 -30.34,0 -54.93,24.59 -54.93,54.93 0,30.33 54.93,110.17 54.93,110.17 0,0 54.93,-79.84 54.93,-110.17" />
      <path
         id="path226"
         style="fill:#f09f8d;fill-opacity:1;fill-rule:nonzero;stroke:none"
         d="m 3833,896.898 c 0.68,5.352 0.16,10.821 -1.51,15.942 -17.56,53.859 -85.52,91.41 -129.88,114.87 -53.15,28.13 -102.17,61.96 -156.88,87.54 -14.6,6.83 -39.82,20.76 -59.71,21.42 -18.65,0.62 -28.27,-22.3 -14.6,-35.01 31.76,-29.54 82.82,-58.78 85.48,-76.78 -61.15,31.18 -79.74,27.69 -161.15,68.73 -21.97,11.08 -107.24,59.8 -133.41,54.51 -39.82,-8.06 -0.75,-36.3 16.65,-51.6 39.57,-34.76 111.96,-69.99 156.74,-98.219 -72.98,33.999 -146.66,71.619 -219.56,105.759 -20.6,9.65 -71.88,32.02 -61.43,-5.06 5.13,-18.18 54.9,-45.98 80.05,-58.71 52.79,-26.73 113.14,-59.52 155.98,-88.899 -27.51,12.879 -114.83,46.828 -165.78,73.929 -10.14,5.4 -66.45,33.55 -78.16,17.89 -24.79,-33.13 193.83,-133.98 207.53,-143.858 -34.78,8.269 -112.28,59.007 -155.72,72.187 -25.65,7.793 -43.61,-0.48 -22.53,-28.48 23.81,-31.629 59.75,-46.657 93.35,-68.45 49.33,-32 114.3,-58.5 165.27,-86.437 43.15,-23.672 87.48,-45 132.41,-65.082 31.01,-13.871 61.74,-33.949 94.83,-38.52 63.4,-8.738 100.56,15.239 129.75,71.219 27.01,51.801 35.11,84.492 42.28,141.109" />
      <path
         id="path228"
         style="fill:#f09f8d;fill-opacity:1;fill-rule:nonzero;stroke:none"
         d="m 4065.73,779.379 c -56.91,26.473 -115.63,48.223 -172.57,74.961 -28.89,13.57 -62.73,36.91 -94.31,42.879 -22.35,-40.778 -35.37,-87.5 -55.22,-129.887 -4.12,-8.793 -8.13,-17.684 -12.5,-26.34 55.63,-47.613 123.36,-85.121 186.79,-121.453 9.59,-5.488 24.72,-14.508 35.31,-16.418 8.57,-1.562 8.95,-0.601 16.79,5.59 20.6,16.25 42.39,37.141 55.4,60.148 18.54,32.75 33.43,67.801 40.31,110.52" />
      <path
         id="path230"
         style="fill:#3bbdb7;fill-opacity:1;fill-rule:nonzero;stroke:none"
         d="m 3592.66,1366.34 c 0,-42.87 -34.75,-77.62 -77.62,-77.62 -42.86,0 -77.61,34.75 -77.61,77.62 0,42.87 77.61,155.67 77.61,155.67 0,0 77.62,-112.8 77.62,-155.67" />
      <path
         id="path232"
         style="fill:#3bbdb7;fill-opacity:1;fill-rule:nonzero;stroke:none"
         d="m 3724.42,1122.59 c 0,-26.37 -21.37,-47.75 -47.73,-47.75 -26.37,0 -47.74,21.38 -47.74,47.75 0,26.36 47.74,95.74 47.74,95.74 0,0 47.73,-69.38 47.73,-95.74" />
      <path
         id="path234"
         style="fill:#3bbdb7;fill-opacity:1;fill-rule:nonzero;stroke:none"
         d="m 3682.47,1541.28 c 0,-26.37 -21.38,-47.74 -47.74,-47.74 -26.36,0 -47.74,21.37 -47.74,47.74 0,26.36 47.74,95.74 47.74,95.74 0,0 47.74,-69.38 47.74,-95.74" />
    </g>
  </g>
</svg>
