<?xml version="1.0" encoding="UTF-8" standalone="no"?>
<svg
   xmlns:dc="http://purl.org/dc/elements/1.1/"
   xmlns:cc="http://creativecommons.org/ns#"
   xmlns:rdf="http://www.w3.org/1999/02/22-rdf-syntax-ns#"
   xmlns:svg="http://www.w3.org/2000/svg"
   xmlns="http://www.w3.org/2000/svg"
   xmlns:sodipodi="http://sodipodi.sourceforge.net/DTD/sodipodi-0.dtd"
   xmlns:inkscape="http://www.inkscape.org/namespaces/inkscape"
   width="37.919731mm"
   height="37.919724mm"
   viewBox="0 0 37.919731 37.919724"
   version="1.1"
   id="svg4587"
   inkscape:version="1.0.1 (3bc2e813f5, 2020-09-07)"
   sodipodi:docname="8.svg">
  <defs
     id="defs4581">
    <clipPath
       id="clipPath562"
       clipPathUnits="userSpaceOnUse">
      <path
         id="path560"
         d="m 5534.71,1165.2 c 0,-296.821 -240.63,-537.45 -537.44,-537.45 -296.82,0 -537.45,240.629 -537.45,537.45 0,296.81 240.63,537.44 537.45,537.44 296.81,0 537.44,-240.63 537.44,-537.44" />
    </clipPath>
  </defs>
  <sodipodi:namedview
     id="base"
     pagecolor="#ffffff"
     bordercolor="#666666"
     borderopacity="1.0"
     inkscape:pageopacity="0.0"
     inkscape:pageshadow="2"
     inkscape:zoom="0.35"
     inkscape:cx="-388.34066"
     inkscape:cy="-2418.4313"
     inkscape:document-units="mm"
     inkscape:current-layer="layer1"
     inkscape:document-rotation="0"
     showgrid="false"
     inkscape:window-width="1267"
     inkscape:window-height="1041"
     inkscape:window-x="52"
     inkscape:window-y="0"
     inkscape:window-maximized="0" />
  <metadata
     id="metadata4584">
    <rdf:RDF>
      <cc:Work
         rdf:about="">
        <dc:format>image/svg+xml</dc:format>
        <dc:type
           rdf:resource="http://purl.org/dc/dcmitype/StillImage" />
        <dc:title></dc:title>
      </cc:Work>
    </rdf:RDF>
  </metadata>
  <g
     inkscape:label="Layer 1"
     inkscape:groupmode="layer"
     id="layer1"
     transform="translate(-208.5818,-79.313945)">
    <path
       id="path540"
       style="fill:#f5fade;fill-opacity:1;fill-rule:nonzero;stroke:none;stroke-width:0.0352777"
       d="m 246.50153,98.273632 c 0,10.471188 -8.48889,18.960038 -18.95969,18.960038 -10.47115,0 -18.96004,-8.48885 -18.96004,-18.960038 0,-10.470795 8.48889,-18.959687 18.96004,-18.959687 10.4708,0 18.95969,8.488892 18.95969,18.959687" />
    <g
       clip-path="url(#clipPath562)"
       id="g558"
       transform="matrix(0.03527778,0,0,-0.03527778,51.249248,139.3793)">
      <path
         id="path564"
         style="fill:#dc877c;fill-opacity:1;fill-rule:nonzero;stroke:none"
         d="m 4594.42,1113.4 c -2.78,5.2 -4.4,11.01 -4.7,16.9 -3.14,61.98 51.67,127.01 87.85,168.41 43.35,49.59 80.24,103.41 126.18,151.02 12.26,12.7 32.6,36.83 52.69,45.3 18.84,7.95 37.65,-11.72 28.66,-30.08 -20.92,-42.67 -61.69,-92.59 -57.36,-112.04 50.33,55.85 70.72,59.57 137.91,133.46 18.14,19.94 86.26,103.19 115.11,108.03 43.9,7.37 15,-36.84 3.2,-59.3 -26.86,-51.08 -87.1,-115.47 -121.85,-161.9 61.32,63.38 121.95,130.74 183.15,194.23 17.3,17.94 60.98,60.93 64.82,18.9 1.88,-20.61 -38.15,-68.56 -58.88,-91.44 -43.52,-48.02 -92.42,-105.22 -124.72,-152.06 23.1,23.96 99.12,92.9 140.61,140.59 8.26,9.5 54.83,60.36 72.95,48.93 38.35,-24.18 -145.77,-213.01 -155.92,-228.49 32.34,22.08 91.73,104.37 131,134.87 23.19,18.02 44.79,16.61 34.22,-20.3 -11.96,-41.69 -42.85,-71.14 -68.68,-106.6 -37.92,-52.06 -94,-104.63 -135.18,-153.19 -34.87,-41.12 -71.86,-80.31 -109.95,-118.47 -26.29,-26.34 -49.86,-58.92 -81.92,-76.561 -61.42,-33.789 -108.84,-23.82 -160.64,22.012 -47.92,42.399 -69.02,72.659 -98.55,127.779" />
      <path
         id="path566"
         style="fill:#d68174;fill-opacity:1;fill-rule:nonzero;stroke:none"
         d="m 4827.97,1344.67 c 4.9,-10.19 7.1,-23.02 7.09,-36.55 0.03,-23.21 -6.48,-48.42 -15.36,-65.61 -8.35,-16.21 -22.56,-36.91 -39.49,-54.32 -16.91,-17.44 -36.6,-31.46 -55.25,-35.03 -2.35,-0.46 -3.89,-2.74 -3.43,-5.09 0.46,-2.36 2.74,-3.89 5.09,-3.43 21.55,4.25 42.17,19.41 59.81,37.5 17.62,18.14 32.19,39.33 40.98,56.39 9.6,18.68 16.31,44.79 16.33,69.59 0,14.45 -2.29,28.48 -7.94,40.3 -1.04,2.16 -3.63,3.07 -5.79,2.04 -2.16,-1.04 -3.08,-3.63 -2.04,-5.79" />
      <path
         id="path568"
         style="fill:#d68174;fill-opacity:1;fill-rule:nonzero;stroke:none"
         d="m 4920.12,1382.06 c 5.9,-6.13 13.91,-10.41 21.93,-14.35 8.02,-3.9 16.12,-7.44 22.03,-11.32 15.94,-10.45 29.88,-22.93 44.55,-35.86 25.31,-22.31 50.1,-44.95 74.39,-68.36 1.73,-1.67 4.48,-1.61 6.14,0.11 1.66,1.73 1.61,4.47 -0.11,6.14 -24.4,23.52 -49.3,46.25 -74.68,68.62 -14.64,12.89 -28.88,25.69 -45.54,36.61 -6.86,4.48 -15.18,8.05 -22.97,11.86 -7.8,3.79 -15,7.84 -19.46,12.55 -1.66,1.73 -4.4,1.79 -6.14,0.14 -1.73,-1.66 -1.79,-4.41 -0.14,-6.14" />
      <path
         id="path570"
         style="fill:#dc877c;fill-opacity:1;fill-rule:nonzero;stroke:none"
         d="m 4402.4,901.98 c 47.85,49.379 99.4,94.641 147.16,144.3 24.25,25.21 49.71,62.34 79.68,80.83 38.84,-32.97 70.48,-75.65 107.38,-111.23 7.67,-7.38 15.25,-14.91 23.12,-22.048 -38.26,-70.512 -92.85,-135.41 -143.49,-197.43 -7.66,-9.382 -19.6,-24.531 -29.69,-30.652 -8.15,-4.941 -8.91,-4.109 -19.36,-0.852 -27.44,8.563 -57.92,21.383 -80.25,39.813 -31.79,26.258 -60.76,56.258 -84.55,97.269" />
      <path
         id="path572"
         style="fill:#ace3d6;fill-opacity:1;fill-rule:nonzero;stroke:none"
         d="m 4782.41,1231.82 c -35.65,-29.33 -117.54,-44.68 -109.6,-93.23 6.1,-37.22 75.34,-107.51 96.69,-139.719 40.63,-61.312 89.01,-112.789 134.93,-168.82 31.76,-38.75 55.82,-101.34 99.25,-126.492 38.71,50.152 90.68,88.562 139.33,128.101 65.69,53.422 129.28,118.309 180.47,185.02 15,19.56 108,132.77 99,166.83 -7.49,28.31 -101.69,63.06 -124.94,79.21 -65.06,45.22 -120,99.03 -174.82,155.6 -23.54,24.3 -25.23,46.39 -56.27,52.2 -24.08,4.5 -222.76,-188.32 -284.04,-238.7" />
      <path
         id="path574"
         style="fill:#f09f8d;fill-opacity:1;fill-rule:nonzero;stroke:none"
         d="m 5220.11,737.051 c -5.46,-2.153 -11.33,-3.11 -17.07,-2.801 -60.42,3.301 -114.77,62.629 -149.15,101.648 -41.19,46.754 -87.49,87.704 -126.37,136.743 -10.37,13.078 -30.54,35.099 -35.6,55.289 -4.73,18.93 17.21,35.02 33.56,24.49 38.01,-24.46 79.91,-68.76 99.4,-66.568 -46.17,54.088 -46.58,74.068 -107.56,146.228 -16.45,19.47 -86.33,93.48 -86.52,121.72 -0.27,42.97 37.97,10.67 57.84,-2.98 45.2,-31.03 98.08,-95.54 137.55,-133.68 -51.72,65.44 -107.4,130.61 -159.26,195.94 -14.65,18.45 -49.41,64.85 -8.17,64.26 20.22,-0.29 60.34,-43.67 79.23,-65.94 39.66,-46.76 87.34,-99.6 127.61,-135.44 -19.57,24.66 -74.39,104.78 -114.04,149.55 -7.89,8.91 -49.81,58.88 -35.94,75.14 29.35,34.43 183.26,-161.9 196.64,-173.24 -16.31,33.35 -86.63,98.86 -110,139.74 -13.8,24.14 -9.08,44.77 24.97,30.84 38.44,-15.75 62.12,-48.46 92.38,-76.92 44.42,-41.76 86.51,-101.06 127.05,-145.61 34.33,-37.74 66.46,-77.3 97.42,-117.82 21.37,-27.97 49.2,-53.95 61.25,-86.589 23.11,-62.512 6.08,-107.102 -46.31,-152.242 -48.46,-41.778 -81.02,-58.989 -138.91,-81.758" />
      <path
         id="path576"
         style="fill:#f09f8d;fill-opacity:1;fill-rule:nonzero;stroke:none"
         d="m 5394.61,530.832 c -40.28,51.047 -76.02,105.227 -116.59,156.227 -20.61,25.89 -52.53,54.16 -65.74,84.871 37.93,33.992 84.14,60.07 124.28,91.941 8.33,6.621 16.8,13.141 24.92,19.981 62.22,-43.973 116.48,-103.09 168.56,-158.122 7.86,-8.308 20.65,-21.339 25,-31.671 3.5,-8.34 2.58,-8.989 -2.2,-18.707 -12.55,-25.52 -29.7,-53.52 -50.99,-73.11 -30.35,-27.902 -63.87,-52.711 -107.24,-71.41" />
    </g>
  </g>
</svg>
