<?xml version="1.0" encoding="UTF-8" standalone="no"?>
<svg
   xmlns:dc="http://purl.org/dc/elements/1.1/"
   xmlns:cc="http://creativecommons.org/ns#"
   xmlns:rdf="http://www.w3.org/1999/02/22-rdf-syntax-ns#"
   xmlns:svg="http://www.w3.org/2000/svg"
   xmlns="http://www.w3.org/2000/svg"
   xmlns:sodipodi="http://sodipodi.sourceforge.net/DTD/sodipodi-0.dtd"
   xmlns:inkscape="http://www.inkscape.org/namespaces/inkscape"
   width="37.919369mm"
   height="37.919731mm"
   viewBox="0 0 37.919369 37.919731"
   version="1.1"
   id="svg4652"
   inkscape:version="1.0.1 (3bc2e813f5, 2020-09-07)"
   sodipodi:docname="9.svg">
  <defs
     id="defs4646">
    <clipPath
       id="clipPath600"
       clipPathUnits="userSpaceOnUse">
      <path
         id="path598"
         d="m 6972.22,1165.2 c 0,-296.821 -240.63,-537.45 -537.45,-537.45 -296.81,0 -537.43,240.629 -537.43,537.45 0,296.81 240.62,537.44 537.43,537.44 296.82,0 537.45,-240.63 537.45,-537.44" />
    </clipPath>
  </defs>
  <sodipodi:namedview
     id="base"
     pagecolor="#ffffff"
     bordercolor="#666666"
     borderopacity="1.0"
     inkscape:pageopacity="0.0"
     inkscape:pageshadow="2"
     inkscape:zoom="0.98994949"
     inkscape:cx="-206.5947"
     inkscape:cy="77.459348"
     inkscape:document-units="mm"
     inkscape:current-layer="layer1"
     inkscape:document-rotation="0"
     showgrid="false"
     inkscape:snap-center="false"
     inkscape:window-width="1267"
     inkscape:window-height="1041"
     inkscape:window-x="78"
     inkscape:window-y="0"
     inkscape:window-maximized="0" />
  <metadata
     id="metadata4649">
    <rdf:RDF>
      <cc:Work
         rdf:about="">
        <dc:format>image/svg+xml</dc:format>
        <dc:type
           rdf:resource="http://purl.org/dc/dcmitype/StillImage" />
        <dc:title></dc:title>
      </cc:Work>
    </rdf:RDF>
  </metadata>
  <g
     inkscape:label="Layer 1"
     inkscape:groupmode="layer"
     id="layer1"
     transform="translate(-379.42722,-151.88537)">
    <path
       id="path578"
       style="fill:#f5fade;fill-opacity:1;fill-rule:nonzero;stroke:none;stroke-width:0.0352777"
       d="m 417.34659,170.84506 c 0,10.47119 -8.48889,18.96004 -18.95968,18.96004 -10.47115,0 -18.95969,-8.48885 -18.95969,-18.96004 0,-10.47079 8.48854,-18.95969 18.95969,-18.95969 10.47079,0 18.95968,8.4889 18.95968,18.95969" />
    <g
       clip-path="url(#clipPath600)"
       id="g596"
       transform="matrix(0.03527778,0,0,-0.03527778,171.38215,211.95073)">
      <path
         id="path602"
         style="fill:#f09f8d;fill-opacity:1;fill-rule:nonzero;stroke:none"
         d="m 6063.94,875.629 c -4.22,2.531 -7.87,5.992 -10.6,10.07 -28.79,42.992 -17.44,112.973 -9.29,158.071 9.77,54.03 13.1,108.32 25.57,162.05 3.32,14.33 7.54,40.3 18.28,54.96 10.08,13.74 31.95,7.74 33.38,-9.25 3.31,-39.47 -4.47,-92.62 6.95,-104.68 12.08,61.49 25.07,72.88 41.49,154.5 4.43,22.03 17.51,110.74 36.06,126.56 28.24,24.06 26.51,-19.93 27.68,-41.04 2.66,-48.03 -12.84,-119.9 -17.82,-167.97 16.72,71.59 31.24,145.72 47.82,217.34 4.68,20.23 17.53,69.69 38.27,41.27 10.16,-13.93 2.07,-65.36 -2.96,-90.61 -10.57,-52.98 -21.04,-114.82 -24.07,-162.15 6.25,27.02 31.09,108.88 40.35,160.76 1.84,10.33 13.37,66.65 31.22,66.23 37.77,-0.87 -13.04,-214.78 -13.67,-230.19 13.67,29.64 20.91,113.93 35.94,152.56 8.86,22.82 24.92,31.07 33.16,0.14 9.31,-34.94 -0.18,-69.24 -3.46,-105.66 -4.82,-53.47 -22.43,-115.08 -31.08,-167.45 -7.34,-44.34 -17,-88.2 -27.9,-131.808 -7.53,-30.09 -10.43,-63.48 -25.8,-89.832 -29.47,-50.469 -67.65,-63.648 -124.32,-53.051 -52.43,9.801 -80.49,22.41 -125.2,49.18" />
      <path
         id="path604"
         style="fill:#d68174;fill-opacity:1;fill-rule:nonzero;stroke:none"
         d="m 6131.93,1141.04 c 10.69,-7.03 19.88,-19.72 26.44,-33.95 6.59,-14.2 10.59,-29.91 11.39,-42.65 0.2,-3.11 0.3,-6.46 0.3,-9.99 0.01,-15.46 -2.02,-34.38 -6.81,-51.78 -4.78,-17.408 -12.39,-33.24 -22.98,-42.701 -1.49,-1.34 -1.61,-3.629 -0.28,-5.11 1.34,-1.488 3.63,-1.609 5.11,-0.277 12.21,11.008 20.1,28 25.12,46.168 5,18.18 7.07,37.61 7.08,53.7 0,3.67 -0.11,7.17 -0.32,10.45 -0.89,13.83 -5.09,30.2 -12.04,45.23 -6.97,15.02 -16.66,28.74 -29.02,36.95 -1.67,1.1 -3.91,0.65 -5.01,-1.02 -1.1,-1.67 -0.65,-3.91 1.02,-5.02" />
      <path
         id="path606"
         style="fill:#d68174;fill-opacity:1;fill-rule:nonzero;stroke:none"
         d="m 6181.82,1207.25 c 3.8,-1.04 7.82,-1.37 11.92,-1.37 9.81,0.02 20.23,1.89 28.5,1.87 l 2,-0.04 c 15.89,-0.63 31.2,-3.59 47.24,-6.56 27.64,-5.11 55.07,-10.69 82.48,-17.04 1.95,-0.45 3.89,0.76 4.34,2.71 0.45,1.95 -0.76,3.89 -2.71,4.34 -27.53,6.37 -55.07,11.98 -82.79,17.11 -16,2.95 -31.66,6 -48.26,6.67 l -2.3,0.05 c -9.24,-0.02 -19.6,-1.9 -28.5,-1.88 -3.7,0 -7.11,0.32 -10,1.12 -1.92,0.53 -3.91,-0.6 -4.44,-2.53 -0.54,-1.92 0.6,-3.91 2.52,-4.45" />
      <path
         id="path608"
         style="fill:#f09f8d;fill-opacity:1;fill-rule:nonzero;stroke:none"
         d="m 6017.14,642.199 c 13.08,55.813 30.57,110.25 43.46,166.223 6.54,28.418 8.85,65.867 22.37,91.93 41.89,-6.954 82.8,-23.922 124.43,-33.563 8.64,-2 17.29,-4.137 25.97,-5.879 2.84,-66.808 -8.41,-136.601 -18.07,-202.648 -1.46,-9.981 -3.51,-25.942 -8.1,-34.633 -3.72,-7.02 -4.62,-6.758 -13.49,-8.887 -23.29,-5.64 -50.58,-9.531 -74.44,-5.902 -33.98,5.16 -67.55,14.219 -102.13,33.359" />
      <path
         id="path610"
         style="fill:#f09f8d;fill-opacity:1;fill-rule:nonzero;stroke:none"
         d="m 6880.38,930.531 c 3.69,3.258 6.64,7.328 8.58,11.84 20.41,47.527 -3.58,114.249 -19.86,157.089 -19.51,51.32 -32.74,104.08 -54.85,154.61 -5.9,13.48 -14.81,38.23 -28.05,50.68 -12.43,11.67 -32.83,1.74 -31.12,-15.21 3.98,-39.41 21.38,-90.24 12.36,-104.2 -23.15,58.24 -38.01,67.06 -69.11,144.28 -8.4,20.85 -37.52,105.66 -58.67,117.8 -32.17,18.48 -22.39,-24.44 -19.68,-45.42 6.19,-47.7 34.62,-115.5 48.32,-161.85 -29.56,67.3 -57.43,137.53 -86.86,204.89 -8.31,19.03 -30,65.29 -45.19,33.55 -7.44,-15.56 9.94,-64.63 19.52,-88.52 20.11,-50.16 41.74,-109.03 53.41,-155 -11.1,25.42 -50.54,101.34 -69.15,150.63 -3.71,9.82 -25.37,63.07 -42.83,59.39 -36.99,-7.79 52.19,-208.74 55.64,-223.78 -18.88,26.63 -41.44,108.16 -63.3,143.39 -12.91,20.8 -30.2,25.95 -32.63,-5.96 -2.74,-36.05 12.87,-68.03 22.78,-103.22 14.55,-51.68 43.15,-109.03 61.27,-158.91 15.33,-42.25 32.88,-83.6 51.6,-124.462 12.91,-28.199 21.88,-60.5 41.83,-83.578 38.22,-44.211 78.17,-50.16 131.94,-29.351 49.74,19.25 75.01,36.793 114.05,71.312" />
      <path
         id="path612"
         style="fill:#d68174;fill-opacity:1;fill-rule:nonzero;stroke:none"
         d="m 6759.84,1184.16 c -18.07,-17.65 -25.95,-49.48 -26.03,-75.45 0,-4.49 0.24,-8.8 0.73,-12.86 1.94,-15.88 7.18,-36.67 15.69,-55.95 8.54,-19.25 20.27,-37.08 35.89,-46.638 1.7,-1.043 3.93,-0.5 4.97,1.207 1.04,1.703 0.5,3.929 -1.21,4.972 -13.54,8.189 -24.87,24.849 -33.03,43.389 -8.19,18.5 -13.3,38.81 -15.12,53.9 -0.46,3.72 -0.69,7.76 -0.69,11.98 -0.08,24.5 8.03,55.16 23.83,70.25 1.43,1.39 1.47,3.68 0.08,5.12 -1.38,1.43 -3.67,1.47 -5.11,0.08" />
      <path
         id="path614"
         style="fill:#d68174;fill-opacity:1;fill-rule:nonzero;stroke:none"
         d="m 6700.52,1241.41 c -4.85,-2.39 -11.66,-3.47 -18.85,-4.17 -7.2,-0.72 -14.74,-1.1 -21.39,-2.61 -16.19,-3.7 -31.03,-9.57 -46.21,-15.41 -26.32,-10.14 -52.36,-20.68 -78.25,-32 -1.84,-0.8 -2.67,-2.93 -1.87,-4.76 0.8,-1.83 2.93,-2.67 4.76,-1.87 25.77,11.26 51.72,21.77 77.96,31.87 15.22,5.86 29.73,11.58 45.22,15.12 5.74,1.32 13.09,1.73 20.49,2.46 7.42,0.75 14.92,1.78 21.3,4.86 1.8,0.88 2.55,3.04 1.67,4.84 -0.87,1.79 -3.04,2.54 -4.83,1.67" />
      <path
         id="path616"
         style="fill:#f09f8d;fill-opacity:1;fill-rule:nonzero;stroke:none"
         d="m 6969.2,709.641 c -23.1,52.461 -50.26,102.769 -73.2,155.429 -11.64,26.731 -20.79,63.121 -38.85,86.27 -39.91,-14.508 -77.01,-38.711 -116.17,-55.82 -8.13,-3.551 -16.23,-7.239 -24.46,-10.54 9.47,-66.191 33.32,-132.738 54.94,-195.898 3.26,-9.543 8.2,-24.84 14.31,-32.551 4.94,-6.23 5.78,-5.801 14.89,-6.281 23.93,-1.27 51.47,-0.07 74.26,7.871 32.45,11.289 63.8,26.348 94.28,51.52" />
      <path
         id="path618"
         style="fill:#126664;fill-opacity:1;fill-rule:nonzero;stroke:none"
         d="m 6472.62,1635.64 c 0,0 1.6,-52.45 -29.09,-52.45 0,0 36.02,-20.73 36.3,-50.45 0,0 2.2,42.48 32.11,50.45 0,0 -34.21,5.19 -39.32,52.45" />
      <path
         id="path620"
         style="fill:#126664;fill-opacity:1;fill-rule:nonzero;stroke:none"
         d="m 6105.68,1412.29 c 0,0 1.61,-52.45 -29.09,-52.45 0,0 36.03,-20.73 36.31,-50.45 0,0 2.2,42.48 32.11,50.45 0,0 -34.21,5.19 -39.33,52.45" />
      <path
         id="path622"
         style="fill:#126664;fill-opacity:1;fill-rule:nonzero;stroke:none"
         d="m 6427.87,1537.53 c 0,0 1.02,-33.53 -18.6,-33.53 0,0 23.02,-13.26 23.21,-32.25 0,0 1.41,27.16 20.53,32.25 0,0 -21.87,3.31 -25.14,33.53" />
      <path
         id="path624"
         style="fill:#126664;fill-opacity:1;fill-rule:nonzero;stroke:none"
         d="m 6893.54,1271.04 c 0,0 1.02,-33.52 -18.6,-33.52 0,0 23.03,-13.26 23.21,-32.26 0,0 1.41,27.16 20.53,32.26 0,0 -21.87,3.31 -25.14,33.52" />
    </g>
  </g>
</svg>
